<svg xmlns="http://www.w3.org/2000/svg" viewBox="0 0 85.46 85.46"><defs><style>.cls-1{fill:#063;}.cls-2{fill:#e0e0e0;}.cls-3{fill:#5ebdb0;}.cls-4{fill:#fff;opacity:0.6;}.cls-11,.cls-13,.cls-4{isolation:isolate;}.cls-5{fill:#37474f;}.cls-6{fill:#465b65;}.cls-7{fill:#263339;}.cls-8{fill:#fbfbfb;}.cls-9{fill:#f0f0f0;}.cls-10{fill:#f4a6a8;}.cls-11,.cls-13{fill:#010101;}.cls-11{opacity:0.2;}.cls-12{fill:#f2908f;}.cls-13{opacity:0.4;}</style></defs><title>galleryIcon</title><g id="Capa_2" data-name="Capa 2"><g id="Capa_1-2" data-name="Capa 1"><circle class="cls-1" cx="42.73" cy="42.73" r="42.73"/><ellipse class="cls-2" cx="68.56" cy="70.14" rx="8.85" ry="4.22"/><polygon class="cls-3" points="14.96 71.3 62.69 43.75 62.69 6.44 14.96 34 14.96 71.3"/><polygon class="cls-4" points="14.96 71.3 62.69 43.75 62.69 6.44 14.96 34 14.96 71.3"/><polygon class="cls-5" points="12.76 32.72 14.96 34 62.69 6.44 64.89 2.62 12.76 32.72"/><polygon class="cls-6" points="64.89 45.02 64.89 2.62 62.69 6.44 62.69 43.75 64.89 45.02"/><polygon class="cls-6" points="12.76 32.72 14.96 34 14.96 71.3 12.76 75.12 12.76 32.72"/><polygon class="cls-5" points="14.96 71.3 62.69 43.75 64.89 45.02 12.76 75.12 14.96 71.3"/><polygon class="cls-6" points="64.89 2.62 63.42 1.78 11.29 31.88 12.76 32.72 64.89 2.62"/><polygon class="cls-7" points="11.29 31.88 12.76 32.72 12.76 75.12 11.29 74.27 11.29 31.88"/><polygon class="cls-7" points="62.69 6.44 61.96 6.86 61.95 43.32 14.96 70.45 14.96 71.3 62.69 43.75 62.69 6.44"/><path class="cls-6" d="M29.43,40.05l-9.89,5.71a.44.44,0,0,0-.2.34V62.18c0,.12.09.17.2.11l9.89-5.71a.46.46,0,0,0,.19-.34V40.17C29.62,40,29.53,40,29.43,40.05Z"/><path class="cls-8" d="M30.46,39.74l-.34-.2a.44.44,0,0,0-.39,0l-9.89,5.7a.42.42,0,0,0-.19.34V61.66a.4.4,0,0,0,.19.34l.34.19a.44.44,0,0,0,.39,0l9.89-5.71a.41.41,0,0,0,.19-.34V40.08A.39.39,0,0,0,30.46,39.74Z"/><path class="cls-2" d="M24.91,48.4l-5.21-3a.66.66,0,0,0-.06.2V61.66a.42.42,0,0,0,.2.34l.34.2a.44.44,0,0,0,.39,0l4.35-3.78C24.94,54.65,25,48.43,24.91,48.4Z"/><path class="cls-9" d="M30.46,40l-9.89,5.71a.46.46,0,0,0-.19.34V62.09a.12.12,0,0,0,.19.11l9.89-5.71a.42.42,0,0,0,.2-.34V40.08C30.66,40,30.57,39.9,30.46,40Z"/><path class="cls-8" d="M20.94,45.88,30.1,40.6c.11-.06.19,0,.19.11v15a.43.43,0,0,1-.19.34l-9.16,5.29c-.1.06-.19,0-.19-.12v-15A.46.46,0,0,1,20.94,45.88Z"/><path class="cls-3" d="M20.75,46.22v2.67a1.32,1.32,0,0,0,1.1-.18,3.85,3.85,0,0,0,1.75-3,1.27,1.27,0,0,0-.45-1.09L21,45.88A.4.4,0,0,0,20.75,46.22Z"/><path class="cls-3" d="M28.63,45.61,26.25,51.3,24.7,50a.28.28,0,0,0-.38,0l0,.06-3.53,7.74v3.38c0,.12.09.17.2.11l1.37-.8,7.78-4.49a.41.41,0,0,0,.19-.34V47.27l-1.18-1.71a.28.28,0,0,0-.38-.08A.32.32,0,0,0,28.63,45.61Z"/><path class="cls-7" d="M26.1,44.73c-.29.49-.75.76-1.23.49h0a.53.53,0,0,1-.2-.47,1.61,1.61,0,0,1,.73-1.27.53.53,0,0,1,.49-.06h0l0,0C26.38,43.73,26.37,44.25,26.1,44.73Z"/><path class="cls-6" d="M25.68,44c.27-.16.48,0,.48.27a1.06,1.06,0,0,1-.48.83c-.26.15-.48,0-.48-.28A1.06,1.06,0,0,1,25.68,44Z"/><path class="cls-6" d="M27.23,44.77A5.41,5.41,0,0,1,26,43.94l-.7,1.15a5.14,5.14,0,0,1,1.35.61Z"/><path class="cls-7" d="M27.7,45a.58.58,0,0,0-.57-.58.78.78,0,0,0-.21,0h0l-.09,0a1.27,1.27,0,0,0-.58,1,.77.77,0,0,0,0,.15.57.57,0,0,0,1.14-.1v-.06A.56.56,0,0,0,27.7,45Z"/><path class="cls-6" d="M26.71,45.09c.23-.39.6-.6.82-.47s.23.55,0,.94-.59.61-.82.48S26.49,45.48,26.71,45.09Z"/><path class="cls-6" d="M43,23.14l-9.89,5.71a.46.46,0,0,0-.19.34V45.26c0,.13.09.18.19.12L43,39.67a.44.44,0,0,0,.2-.34V23.25C43.23,23.13,43.14,23.08,43,23.14Z"/><path class="cls-8" d="M44.07,22.83l-.34-.2a.45.45,0,0,0-.39,0l-9.89,5.7a.44.44,0,0,0-.2.34V44.75a.44.44,0,0,0,.2.34l.34.19a.44.44,0,0,0,.39,0l9.89-5.71a.44.44,0,0,0,.19-.34V23.16A.44.44,0,0,0,44.07,22.83Z"/><path class="cls-2" d="M38.51,31.49l-5.2-3a.36.36,0,0,0-.06.2V44.75a.42.42,0,0,0,.2.34l.34.2a.44.44,0,0,0,.39,0l4.34-3.78C38.55,37.74,38.57,31.52,38.51,31.49Z"/><path class="cls-9" d="M44.07,23.05l-9.89,5.71a.43.43,0,0,0-.19.34V45.18a.12.12,0,0,0,.19.11l9.89-5.71a.4.4,0,0,0,.19-.34V23.16C44.27,23,44.18,23,44.07,23.05Z"/><path class="cls-8" d="M34.55,29l9.16-5.28c.11-.07.19,0,.19.11v15a.46.46,0,0,1-.19.34l-9.16,5.28c-.11.07-.19,0-.19-.11v-15A.45.45,0,0,1,34.55,29Z"/><path class="cls-3" d="M34.35,29.3V32a1.28,1.28,0,0,0,1.1-.19,3.79,3.79,0,0,0,1.75-3,1.26,1.26,0,0,0-.44-1.08L34.55,29A.49.49,0,0,0,34.35,29.3Z"/><path class="cls-3" d="M42.24,28.69l-2.38,5.7L38.3,33.12a.27.27,0,0,0-.38,0l0,.06L34.36,41v3.37c0,.13.09.18.2.12l1.37-.8,7.78-4.49a.44.44,0,0,0,.19-.34V30.36l-1.19-1.71a.26.26,0,0,0-.37-.08A.23.23,0,0,0,42.24,28.69Z"/><path class="cls-7" d="M39.7,27.82c-.28.49-.74.76-1.22.49h0a.54.54,0,0,1-.21-.47A1.6,1.6,0,0,1,39,26.56a.53.53,0,0,1,.49-.07l0,0,0,0A.89.89,0,0,1,39.7,27.82Z"/><path class="cls-6" d="M39.29,27c.26-.15.48,0,.48.28a1.08,1.08,0,0,1-.48.83c-.27.15-.48,0-.48-.28A1.09,1.09,0,0,1,39.29,27Z"/><path class="cls-6" d="M40.84,27.86A5,5,0,0,1,39.65,27L39,28.18a4.93,4.93,0,0,1,1.34.61Z"/><path class="cls-7" d="M41.3,28a.57.57,0,0,0-.56-.58.71.71,0,0,0-.21,0h0l-.09,0a1.27,1.27,0,0,0-.58,1,.77.77,0,0,0,0,.15.56.56,0,0,0,.67.45.57.57,0,0,0,.46-.55v-.06A.56.56,0,0,0,41.3,28Z"/><path class="cls-6" d="M40.32,28.18c.23-.39.59-.61.82-.48s.23.56,0,.95-.59.61-.82.48S40.09,28.57,40.32,28.18Z"/><path class="cls-6" d="M57.51,24.94l-9.89,5.71a.44.44,0,0,0-.19.33V47.06c0,.13.09.18.19.11l9.89-5.71a.42.42,0,0,0,.2-.33V25.05C57.71,24.92,57.62,24.88,57.51,24.94Z"/><path class="cls-8" d="M58.55,24.62l-.34-.19a.44.44,0,0,0-.39,0l-9.89,5.7a.42.42,0,0,0-.2.34V46.54a.42.42,0,0,0,.2.34l.34.2a.44.44,0,0,0,.39,0l9.89-5.71a.46.46,0,0,0,.19-.34V25A.46.46,0,0,0,58.55,24.62Z"/><path class="cls-2" d="M53,33.28l-5.2-3a.33.33,0,0,0-.06.19V46.55a.44.44,0,0,0,.2.34l.34.19a.44.44,0,0,0,.39,0L53,43.31C53,39.53,53.06,33.32,53,33.28Z"/><path class="cls-9" d="M58.55,24.85l-9.89,5.71a.41.41,0,0,0-.19.34V47c0,.13.09.18.19.12l9.89-5.71a.42.42,0,0,0,.19-.34V25C58.75,24.84,58.66,24.78,58.55,24.85Z"/><path class="cls-8" d="M49,30.77l9.16-5.29c.11-.06.19,0,.19.12v15a.44.44,0,0,1-.19.34L49,46.25c-.11.06-.19,0-.19-.11v-15A.44.44,0,0,1,49,30.77Z"/><path class="cls-3" d="M48.83,31.1v2.67a1.31,1.31,0,0,0,1.1-.18,3.82,3.82,0,0,0,1.75-3,1.24,1.24,0,0,0-.44-1.08L49,30.76A.45.45,0,0,0,48.83,31.1Z"/><path class="cls-3" d="M56.72,30.49l-2.38,5.69-1.56-1.26a.27.27,0,0,0-.38,0l0,.07-3.53,7.73v3.38c0,.13.09.18.2.11l1.37-.79L58.19,41a.46.46,0,0,0,.19-.34V32.15l-1.19-1.71a.26.26,0,0,0-.37-.07A.23.23,0,0,0,56.72,30.49Z"/><path class="cls-10" d="M73.91,39.88c-.23-1-.7-3-1.2-5.25-.25-1.13-.53-2.24-1.37-2.42,0,0-2.21.88-2.21,2.51S70.94,37,70.94,37a30.61,30.61,0,0,1,1.14,3.69"/><path class="cls-7" d="M54.24,29.66a.91.91,0,0,1-1.23.49l0,0h0a.53.53,0,0,1-.2-.47,1.64,1.64,0,0,1,.73-1.27.55.55,0,0,1,.5-.06h0l0,0C54.52,28.65,54.51,29.18,54.24,29.66Z"/><path class="cls-6" d="M53.82,28.88c.27-.16.48,0,.48.27a1,1,0,0,1-.48.83c-.26.15-.47,0-.47-.28A1,1,0,0,1,53.82,28.88Z"/><path class="cls-6" d="M55.37,29.69a5.41,5.41,0,0,1-1.19-.83L53.48,30a4.93,4.93,0,0,1,1.34.61Z"/><path class="cls-10" d="M66.45,31.76a3.54,3.54,0,0,0-2.1.35c-1.48,1-3.36,2.45-4.28,3.22,0,0-2.69-5.42-3.67-6.11a3,3,0,0,0-1.58-.66,1.27,1.27,0,0,0-1.1.44c-.41.48-.26,1.16.72,1,.26,0,.45-.58.45-.58.24,0,.08.84.31.9.42.55.89.32,1.12.92.32.84,2.29,6.17,2.6,6.57s.8.61,1.55.22,4.62-2.81,4.62-2.81Z"/><path class="cls-7" d="M55.84,29.87a.57.57,0,0,0-.57-.58.76.76,0,0,0-.21,0h0l-.09.05a1.24,1.24,0,0,0-.58,1,.38.38,0,0,0,0,.15.57.57,0,0,0,1.14-.1v-.06A.58.58,0,0,0,55.84,29.87Z"/><path class="cls-6" d="M55.27,29.58c.32-.2.58,0,.58.33a1.28,1.28,0,0,1-.58,1c-.32.18-.59,0-.59-.34A1.28,1.28,0,0,1,55.27,29.58Z"/><rect class="cls-10" x="69.19" y="66.09" width="1.58" height="2.3"/><path class="cls-7" d="M66.54,67.71c-.1.28-.57.51-.91.76a.67.67,0,0,0-.22.84c.13.22.73.33,1.38.23s1.36-.42,1.48-1.07a7.86,7.86,0,0,1,.43-1.58,2,2,0,0,0,.3-1,1.25,1.25,0,0,0-.55-.78s-1.19,2.71-1.53,2.77S66.54,67.71,66.54,67.71Z"/><path class="cls-10" d="M66.48,64.1s.26.89.34,1.19a6.86,6.86,0,0,1-.2,2.2,1.11,1.11,0,0,1-.39.6s-.49.42.07.5a1.25,1.25,0,0,0,1.27-.42c.37-.43.42-1.64.67-2.14.16-.32.28-.52.32-.62s-.11-.17-.27-.62A10.55,10.55,0,0,1,68,63.43Z"/><path class="cls-6" d="M71.87,42.68C72.7,45,72,49,71.76,51.23S71.3,56,71.3,56a17.06,17.06,0,0,1,.64,4.11,46.91,46.91,0,0,1-1.15,6.47,1.49,1.49,0,0,1-1.62,0s-.28-3.84-.54-6-.36-3.94-.59-5.27c-.3-1.66-.56-8.19-.56-8.19L66.25,54a14.4,14.4,0,0,1,.93,2.55c.35,1.35,1,7.66,1,7.66a1.69,1.69,0,0,1-1.59.6s-3.18-9.14-3.5-10c-.44-1.2.3-9,.54-11.66Z"/><path class="cls-3" d="M69.07,31.84a20.94,20.94,0,0,1,2.27.38c-2.1,1.47-.4,4.75-.4,4.75l-1,2.79a8.34,8.34,0,0,1,1.94,2.91,6.77,6.77,0,0,1-8.21.45,36.65,36.65,0,0,1,.47-4c-.58-2.75-.63-3.62-.47-4.26.47-1.81,1.55-3,2.79-3Z"/><path class="cls-11" d="M69.07,31.84a20.94,20.94,0,0,1,2.27.38c-2.1,1.47-.4,4.75-.4,4.75l-1,2.79a8.34,8.34,0,0,1,1.94,2.91,6.77,6.77,0,0,1-8.21.45,36.65,36.65,0,0,1,.47-4c-.58-2.75-.63-3.62-.47-4.26.47-1.81,1.55-3,2.79-3Z"/><path class="cls-7" d="M69.19,67.61v-.22a4.37,4.37,0,0,1-1.12,2c-.5.46-1.18,1-1.35,1.49s.8.73,1.44.67a2.6,2.6,0,0,0,1.62-.85,4.8,4.8,0,0,0,.59-1c.18-.26.63-.55.73-.84A1.85,1.85,0,0,0,71,68c-.08-.31-.15-.59-.25-.56v.17a1.23,1.23,0,0,1-.79.26C69.75,67.83,69.19,67.79,69.19,67.61Z"/><path class="cls-10" d="M70.77,67.56c0-.16-.47.22-.82.23s-.59,0-.59-.19l-.17-.21a4.37,4.37,0,0,1-1.12,2l-.38.34c-.27.29-.2.55.43.61a2,2,0,0,0,1.64-.91A9.67,9.67,0,0,0,70.77,67.56Z"/><path class="cls-7" d="M67.71,30.5h-.38a3.59,3.59,0,0,1-3.59-3.59v-.37a3,3,0,0,1,3.05-3.05h1.48a3,3,0,0,1,3,3.05h0v.35a3.61,3.61,0,0,1-3.61,3.61Z"/><path class="cls-10" d="M65,25c-.4.24-.89,1.25-.84,3.36,0,1.79.62,2.23.91,2.36a3.2,3.2,0,0,0,1.4,0v1.07s-.76.88-.71,1.36,1.09.61,1.8.13a5.58,5.58,0,0,0,1.3-1.42V29.36s.32.31.86-.16a1,1,0,0,0,.25-1.41.78.78,0,0,0-1.1,0,.74.74,0,0,0-.14.22,4.22,4.22,0,0,1-2-.6A3.26,3.26,0,0,1,65,25Z"/><path class="cls-7" d="M66.13,27.92a.23.23,0,0,0,.23.23.24.24,0,0,0,.23-.23.22.22,0,0,0-.22-.22.23.23,0,0,0-.24.22Z"/><path class="cls-12" d="M66.07,29.44l-.52.16a.27.27,0,0,0,.33.2h0A.28.28,0,0,0,66.07,29.44Z"/><path class="cls-7" d="M64.29,27.23l.45-.32a.26.26,0,0,0-.36-.08h0A.3.3,0,0,0,64.29,27.23Z"/><path class="cls-7" d="M64.4,27.75a.22.22,0,0,0,.22.23.23.23,0,0,0,.23-.23.22.22,0,0,0-.22-.22A.22.22,0,0,0,64.4,27.75Z"/><polygon class="cls-12" points="65.46 27.63 65.42 28.98 64.71 28.76 65.46 27.63"/><path class="cls-12" d="M66.45,30.69c.58-.08,1.76-.42,1.94-.89a1.2,1.2,0,0,1-.41.6,6.55,6.55,0,0,1-1.53.65Z"/><polygon class="cls-3" points="70.52 38.11 68.95 40.24 69.92 39.76 70.52 38.11"/><polygon class="cls-13" points="70.52 38.11 68.95 40.24 69.92 39.76 70.52 38.11"/><path class="cls-10" d="M56.15,31a6,6,0,0,0-.88-.35,2.67,2.67,0,0,0-.57-.16c-.14,0-.15-.47.37-.42s.73.08.78-.11Z"/><path class="cls-10" d="M72.08,40.66a28.5,28.5,0,0,1-.71,4.62.58.58,0,0,1-.32.33,4,4,0,0,0-1.31,1c-.29.27-.52.32-.49.42a.45.45,0,0,0,.55.24,3.22,3.22,0,0,0,.68-.31,4.29,4.29,0,0,1-.75,1.1c-.69.74-.75,1.22.54,1.32.81.07,1.5-.39,2.23-2.14a14.63,14.63,0,0,0,.56-2c.28-1.09.67-3,.88-4.05a3.19,3.19,0,0,0,0-1.34"/><path class="cls-7" d="M70.87,25h0a2.39,2.39,0,0,1,2.39,2.38h0v4.5h0a2.39,2.39,0,0,1-2.39-2.39h0V25Z"/><path class="cls-7" d="M67.48,47.09s-.89-.63-1.74-1.35a12.74,12.74,0,0,0,1.36,1.55l-.54,5Z"/></g></g></svg>