<svg xmlns="http://www.w3.org/2000/svg" xmlns:xlink="http://www.w3.org/1999/xlink" viewBox="0 0 140.66 41.36"><defs><style>.cls-1{fill:url(#Degradado_sin_nombre_27);}.cls-2{fill:#063;}.cls-3{font-size:7.61px;stroke-width:0.25px;}.cls-10,.cls-3,.cls-9{fill:#ec671b;stroke:#fff;stroke-miterlimit:10;font-family:Bella;}.cls-4{letter-spacing:-0.01em;}.cls-5{letter-spacing:-0.03em;}.cls-6{letter-spacing:0em;}.cls-7{letter-spacing:-0.06em;}.cls-8{letter-spacing:-0.08em;}.cls-9{font-size:22.47px;}.cls-10,.cls-9{stroke-width:0.75px;}.cls-10{font-size:13.93px;}</style><linearGradient id="Degradado_sin_nombre_27" x1="22.95" y1="20.33" x2="140.66" y2="20.33" gradientUnits="userSpaceOnUse"><stop offset="0" stop-color="#68b545"/><stop offset="0.02" stop-color="#64b148"/><stop offset="0.13" stop-color="#539e56"/><stop offset="0.25" stop-color="#48935e"/><stop offset="0.37" stop-color="#458f61"/><stop offset="0.85" stop-color="#27508d"/><stop offset="0.89" stop-color="#253e92"/><stop offset="1" stop-color="#203c91"/></linearGradient></defs><title>logoInfoArso_1</title><g id="Capa_2" data-name="Capa 2"><g id="Capa_1-2" data-name="Capa 1"><path class="cls-1" d="M140.66,39l-11.83-.14a4.32,4.32,0,0,1-1.06,1,5,5,0,0,1-5.28.08,4.18,4.18,0,0,1-1.19-1.11l-45.51,0c0-1.61,0-3.22.07-4.84a5,5,0,0,1-3.3.33,5.19,5.19,0,0,1-2.85-2,7.13,7.13,0,0,1-1.31-3.1A12.46,12.46,0,0,1,69.32,22c.12-.19,2.81-4.68.89-7.51A3.84,3.84,0,0,0,69,13.33c-1.76-1-4.36-.51-6.65,1.19a9.27,9.27,0,0,0-3.92-3.27A9.13,9.13,0,0,0,51.32,11a15.59,15.59,0,0,1-4,1.09C39.9,13.06,34,8.23,32.41,6.84L23,0H140.66Z"/><path class="cls-2" d="M7.41,17.38c.18-.57.35-1.14.54-1.71a32.13,32.13,0,0,1,2.37-5.29,24.92,24.92,0,0,1,5.31-6.73,16.7,16.7,0,0,1,4-2.55A11.59,11.59,0,0,1,28.92,1a28.33,28.33,0,0,1,5.65,3.13c2,1.36,4,2.76,6,4.07a16.43,16.43,0,0,0,6.11,2.5,26.6,26.6,0,0,0,3,.18c.18,0,.36,0,.55,0a9.26,9.26,0,0,1-2.24.59,13.68,13.68,0,0,1-6.52-.85A33.6,33.6,0,0,1,36.27,8c-2.05-1.19-4.08-2.41-6.16-3.55a13.36,13.36,0,0,0-4.39-1.54,10,10,0,0,0-5.42.69,17.75,17.75,0,0,0-5.83,4,38.17,38.17,0,0,0-5.53,7.23c-.48.79-.92,1.6-1.39,2.4a.6.6,0,0,1-.09.13Z"/><path class="cls-2" d="M63.32,37.77a4.94,4.94,0,0,0,1.23-5.2A4.23,4.23,0,0,0,63.79,31a3.29,3.29,0,0,0-2.24-1.11c-1.17-.15-2.35-.24-3.54-.34a15.08,15.08,0,0,1-4.46-.82,6.15,6.15,0,0,1-4-7.17,18.1,18.1,0,0,1,.62-2,3.79,3.79,0,0,1,.18-.34c0,.87,0,1.71,0,2.54a5.54,5.54,0,0,0,.77,2.62,4.85,4.85,0,0,0,2.62,2.09,16.9,16.9,0,0,0,4,.84,18.61,18.61,0,0,1,4.07.75,7.76,7.76,0,0,1,1.76.86,4.28,4.28,0,0,1,1.81,3,6.47,6.47,0,0,1-.34,4,.39.39,0,0,0,.09.33,3.15,3.15,0,0,0,1.7.95c.62.13,1.26.18,1.89.27l.29,0A6.82,6.82,0,0,1,63.32,37.77Z"/><path class="cls-2" d="M69.69,29.82l.75-.25a1.42,1.42,0,0,1,1.77.72c.25.43.43.9.68,1.33a4.51,4.51,0,0,0,.71,1,2,2,0,0,0,1.8.7,4.43,4.43,0,0,1-1.9.52,3.44,3.44,0,0,1-3.11-1.67,3.57,3.57,0,0,1-.27-.45,11,11,0,0,1-1.36-4.42,8,8,0,0,1,.46-2.65c.5-1.46,1-2.91,1.56-4.37a11.07,11.07,0,0,0,.66-3.11,4.5,4.5,0,0,0-2-4.23,4.34,4.34,0,0,0-2.8-.62,9.87,9.87,0,0,0-4,1.24l-.38.2L60.94,12a4.14,4.14,0,0,1,.56-.32,11.63,11.63,0,0,1,5.11-1.27,5.66,5.66,0,0,1,3.41,1,5.84,5.84,0,0,1,2.56,4.65,9.14,9.14,0,0,1-.7,3.83c-.56,1.41-1.19,2.79-1.78,4.19a8.32,8.32,0,0,0-.87,3.7A5.45,5.45,0,0,0,69.69,29.82Z"/><path class="cls-2" d="M49.13,12.08A14,14,0,0,1,53.28,11a10.51,10.51,0,0,1,3.95.27,7.33,7.33,0,0,1,5.21,5.23c.43,1.38.7,2.8,1.08,4.2a16.69,16.69,0,0,0,.79,2.25A4.79,4.79,0,0,0,67,25.5a.4.4,0,0,1,.28.33c.52,3.5,1.06,7,1.59,10.5t0,.09c-.19-.71-.39-1.41-.58-2.11l-1.44-5.22c-.2-.72-.39-1.45-.6-2.17a.46.46,0,0,0-.26-.27,5.83,5.83,0,0,1-3.2-2.82,16.81,16.81,0,0,1-1.43-4.42c-.24-1-.44-2-.76-3a6.27,6.27,0,0,0-4.37-4.15,14.28,14.28,0,0,0-5.52-.4C50.18,11.94,49.66,12,49.13,12.08Z"/><path class="cls-2" d="M26.17,12.66c.4-.18.79-.39,1.2-.53a4.94,4.94,0,0,1,4.32.31,5.74,5.74,0,0,1,2.1,2.32A14.84,14.84,0,0,1,35,18.49c.42,1.91.8,3.84,1.24,5.75a13.11,13.11,0,0,0,1.15,3.27,2.25,2.25,0,0,0,.29.5,2.9,2.9,0,0,1,.6,1.52c.41,2.56.85,5.11,1.25,7.68,0-.08-.05-.16-.08-.25-.68-2.46-1.35-4.92-2-7.38a2.39,2.39,0,0,0-.37-.73,11.07,11.07,0,0,1-1.84-3.74c-.85-2.82-1.64-5.66-2.45-8.49a7,7,0,0,0-1.11-2.38A4.18,4.18,0,0,0,29,12.7a7.61,7.61,0,0,0-2.65,0l-.13,0Z"/><path class="cls-2" d="M15.91,11.43c-.16.93-.38,1.9-.49,2.88a6.86,6.86,0,0,0,.76,4.28,5.9,5.9,0,0,0,2.22,2.24c1,.58,2.12,1.1,3.2,1.6a39.16,39.16,0,0,1,4.75,2.29,10.17,10.17,0,0,1,2.81,2.54,1.25,1.25,0,0,1,.21.45l-.15-.09a14.94,14.94,0,0,0-4.86-2.53c-1.45-.5-2.92-1-4.35-1.51a10.12,10.12,0,0,1-3.72-2.27,6.8,6.8,0,0,1-1.88-6.23,8.91,8.91,0,0,1,1.43-3.56S15.9,11.43,15.91,11.43Z"/><path class="cls-2" d="M39.52,38.29a7.13,7.13,0,0,1-5.11.41c.16-.19.33-.37.48-.57a3.17,3.17,0,0,0,.39-2.77,8.59,8.59,0,0,0-2.15-3.8,4.06,4.06,0,0,0-.5-.43A7.82,7.82,0,0,1,30,27.37a11.44,11.44,0,0,0-.83-1.94A7.2,7.2,0,0,0,26,22.69l-.13-.07s0,0,0,0a5,5,0,0,1,1.7.34A5.91,5.91,0,0,1,31,26.46a7.8,7.8,0,0,0,2.33,3.33,7.73,7.73,0,0,1,2.42,3.56,5.48,5.48,0,0,1,.32,3.27.7.7,0,0,0,.37.88,5,5,0,0,0,2,.67C38.78,38.22,39.13,38.25,39.52,38.29Z"/><path class="cls-2" d="M7.36,21.26a6.89,6.89,0,0,0-4.28-.08c-1,.25-2,.59-3.08.89.09-.16.19-.36.31-.55a7,7,0,0,1,2.42-2.21A11.12,11.12,0,0,1,6.42,18a.77.77,0,0,1,.42.07,1.92,1.92,0,0,1,.77,2.74C7.54,21,7.45,21.1,7.36,21.26Z"/><path class="cls-2" d="M37,24.5c.56.35,1.07.75,1.63,1a7.44,7.44,0,0,0,4.55.62A14.25,14.25,0,0,1,47.85,26a9.35,9.35,0,0,1,1.53.48,2.63,2.63,0,0,1,.49.33c-.49-.08-.91-.18-1.32-.22a10.61,10.61,0,0,0-3.63.43c-1,.26-2,.56-3,.75a7.09,7.09,0,0,1-3.36-.15,1.2,1.2,0,0,1-.69-.47A5.81,5.81,0,0,1,37,24.5Z"/><path class="cls-2" d="M18.57,24.06a4.46,4.46,0,0,1-2,3.56,5.41,5.41,0,0,1-2.53.85c-.18,0-.21-.08-.26-.21a13.22,13.22,0,0,0-2.37-4,12.49,12.49,0,0,0-3.38-2.76L8,21.44l0-.08c.34.09.7.15,1,.27a9.48,9.48,0,0,1,3,1.83c1,.89,1.92,1.85,2.89,2.77a.77.77,0,0,0,.45.2A2.26,2.26,0,0,0,17,25.79c.49-.46.91-1,1.37-1.49C18.46,24.23,18.51,24.14,18.57,24.06Z"/><path class="cls-2" d="M52.4,34a8.56,8.56,0,0,1-4.7-.22c.53-.49,1-1,1.49-1.38a2.19,2.19,0,0,0,.63-1c.34-1,.75-2,1.13-3a1.73,1.73,0,0,1,.13-.24l2,1.1a4,4,0,0,0-3.15,3.06c-.13.38-.06.55.3.79a6.87,6.87,0,0,0,1.95.78Z"/><path class="cls-2" d="M33.63,33.31a7,7,0,0,1-3.82-.5l1.2-.93a1.73,1.73,0,0,0,.73-.95c.19.13.32.27.14.51a.45.45,0,0,0-.06.12c-.29.59-.24.79.35,1.11.4.22.82.38,1.24.56Z"/><text class="cls-3" transform="translate(40.79 7.24)"><tspan class="cls-4">G</tspan><tspan x="6.05" y="0">ANADERIA R</tspan><tspan class="cls-5" x="51.17" y="0">E</tspan><tspan class="cls-6" x="54.67" y="0">GENER</tspan><tspan class="cls-7" x="78.2" y="0">A</tspan><tspan x="83.31" y="0">TI</tspan><tspan class="cls-8" x="88.47" y="0">V</tspan><tspan class="cls-6" x="92.77" y="0">A</tspan></text><text class="cls-9" transform="translate(74.61 26.2)">Santo</text><text class="cls-10" transform="translate(75.74 38.34)">Domingo</text></g></g></svg>