<svg xmlns="http://www.w3.org/2000/svg" viewBox="0 0 71.52 43.84"><defs><style>.cls-1{isolation:isolate;}.cls-2{fill:#f6c091;}.cls-3{fill:#dca47c;}.cls-4{fill:#4a4a4a;}.cls-5{fill:#f4f3f4;}.cls-6{fill:#cfcece;}.cls-7{fill:#555454;}.cls-8{fill:#cc9062;}.cls-9{fill:#aa7249;}.cls-10{mix-blend-mode:multiply;}.cls-11{fill:#134777;}.cls-12{fill:#11273c;}</style></defs><title>politicsImage</title><g class="cls-1"><g id="Capa_2" data-name="Capa 2"><g id="Capa_1-2" data-name="Capa 1"><polygon class="cls-2" points="46.86 30.77 62.21 20.73 53.44 7.33 45.76 12.35 37.91 14.92 38.09 17.37 46.86 30.77"/><polygon class="cls-3" points="51.44 10.74 55.68 22.8 57.43 22.91 58.73 21.87 51.44 10.74"/><rect class="cls-3" x="54.79" y="21.09" width="7.53" height="1.84" transform="translate(-2.5 35.66) rotate(-33.2)"/><path class="cls-4" d="M46.86,31.13a.34.34,0,0,1-.3-.16l-8.77-13.4a.27.27,0,0,1-.06-.17l-.18-2.46a.35.35,0,0,1,.25-.36L45.61,12l7.63-5a.37.37,0,0,1,.5.1l8.77,13.4a.37.37,0,0,1,.05.27.36.36,0,0,1-.15.23l-15.36,10A.35.35,0,0,1,46.86,31.13ZM38.44,17.26l8.52,13,14.75-9.66L53.34,7.82,46,12.65l-.08,0-7.59,2.48Z"/><rect class="cls-5" x="54.09" y="4.09" width="9.28" height="18.63" transform="translate(2.25 34.34) rotate(-33.2)"/><rect class="cls-6" x="57.54" y="15.65" width="9.28" height="6.03" transform="translate(-0.07 37.09) rotate(-33.2)"/><path class="cls-2" d="M41.86,36.36l11.42-7.48a4.7,4.7,0,0,0,1.36-6.5l-5.07-7.75-7.68,5L34,22.22l.18,2.45Z"/><path class="cls-3" d="M39.8,36.1l13.81-9a4.72,4.72,0,0,0,1.8-2.22,4.69,4.69,0,0,1-2.13,4L42.35,36Z"/><path class="cls-4" d="M41.86,36.71a.34.34,0,0,1-.3-.16.35.35,0,0,1,.1-.49l11.43-7.48a4.33,4.33,0,0,0,1.25-6,.36.36,0,0,1,.11-.5.36.36,0,0,1,.49.1,5.05,5.05,0,0,1-1.46,7L42.06,36.66A.35.35,0,0,1,41.86,36.71Z"/><path class="cls-4" d="M59.94,24.09h-.07a.41.41,0,0,1-.23-.16L49.45,8.35a.36.36,0,0,1,.1-.5l7.76-5.08a.37.37,0,0,1,.5.1L68,18.46a.36.36,0,0,1-.11.5L60.14,24A.46.46,0,0,1,59.94,24.09ZM50.24,8.25l9.81,15,7.16-4.69-9.81-15Z"/><rect class="cls-7" x="56.17" y="1.48" width="10.21" height="20.5" transform="matrix(0.84, -0.55, 0.55, 0.84, 3.58, 35.47)"/><path class="cls-4" d="M62.62,23.46h-.07a.35.35,0,0,1-.23-.16L51.09,6.15A.37.37,0,0,1,51,5.88a.35.35,0,0,1,.16-.23L59.74.06a.37.37,0,0,1,.5.1L71.46,17.32a.34.34,0,0,1-.1.49L62.82,23.4A.36.36,0,0,1,62.62,23.46ZM51.89,6.05,62.72,22.61l8-5.2L59.83.86Z"/><rect class="cls-4" x="60.2" y="15" width="10.21" height="5.78" transform="matrix(0.84, -0.55, 0.55, 0.84, 0.86, 38.68)"/><path class="cls-8" d="M51.44,31,37.25,21.66a2.91,2.91,0,0,1-.84-4h0a2.91,2.91,0,0,1,4-.84l14.18,9.28a2.91,2.91,0,0,1,.85,4h0A2.91,2.91,0,0,1,51.44,31Z"/><path class="cls-9" d="M54.62,26.07l-1.32-.86A2.91,2.91,0,0,1,50,30L37.1,21.56l.15.1L51.44,31a2.91,2.91,0,0,0,3.18-4.88Z"/><path class="cls-8" d="M34.41,26.75l14.67,9.6a2.91,2.91,0,0,0,3.19-4.87L35.53,20.53Z"/><g class="cls-10"><path class="cls-3" d="M49.48,18c-5.9,7.05-10.25-1.44-10.25-1.44l4.55,6.94a2.92,2.92,0,0,1-.84,4h0a2.93,2.93,0,0,1-4-.84L32.81,17.4a2.93,2.93,0,0,1,.84-4l4.86-3.17A2.9,2.9,0,0,1,41,9.87l5.78,2Z"/></g><path class="cls-8" d="M37.92,43,25,34.58a2.92,2.92,0,0,1-.84-4h0a2.91,2.91,0,0,1,4-.85l12.88,8.43a2.91,2.91,0,0,1,.85,4h0A2.92,2.92,0,0,1,37.92,43Z"/><path class="cls-9" d="M41.11,38.13l-1.32-.86A2.91,2.91,0,0,1,36.45,42L24.89,34.47l.15.11L37.92,43a2.92,2.92,0,1,0,3.19-4.88Z"/><path class="cls-4" d="M53,31.78a3.24,3.24,0,0,1-1.78-.53.37.37,0,0,1-.11-.5.36.36,0,0,1,.5-.1,2.56,2.56,0,0,0,2.8-4.28L40.24,17.09a2.55,2.55,0,0,0-3.53.74.36.36,0,0,1-.6-.39,3.28,3.28,0,0,1,4.53-1l14.18,9.28a3.27,3.27,0,0,1-1.8,6Z"/><path class="cls-4" d="M39.67,43.84a3.24,3.24,0,0,1-1.78-.53L25,34.88a3.28,3.28,0,0,1-1.41-2.07,3.23,3.23,0,0,1,.47-2.46,3.27,3.27,0,0,1,4.52-1l12.89,8.43a3.27,3.27,0,0,1-1.8,6ZM26.8,29.59a2.56,2.56,0,0,0-2.14,1.15,2.57,2.57,0,0,0,.74,3.54l12.88,8.43a2.55,2.55,0,0,0,2.79-4.28L28.19,30A2.53,2.53,0,0,0,26.8,29.59Z"/><polygon class="cls-8" points="24.67 30.89 9.31 20.84 18.08 7.44 25.76 12.46 33.61 15.03 33.43 17.49 24.67 30.89"/><polygon class="cls-9" points="14.79 24.45 22.44 10.32 18.41 7.68 9.64 21.08 14.79 24.45"/><path class="cls-4" d="M24.67,31.24a.46.46,0,0,1-.2,0l-15.35-10a.36.36,0,0,1-.11-.5l8.77-13.4A.36.36,0,0,1,18,7.09a.37.37,0,0,1,.27,0l7.64,5,7.8,2.55a.35.35,0,0,1,.25.36l-.18,2.46a.27.27,0,0,1-.06.17L25,31.08a.41.41,0,0,1-.23.16ZM9.81,20.74l14.75,9.65,8.52-13,.15-2.09L25.65,12.8l-.09,0L18.19,7.94Z"/><rect class="cls-5" x="3.48" y="8.88" width="18.63" height="9.28" transform="translate(-5.52 16.82) rotate(-56.8)"/><rect class="cls-6" x="6.33" y="14.14" width="6.03" height="9.28" transform="translate(-11.49 16.32) rotate(-56.8)"/><path class="cls-8" d="M29.36,37.37,17.94,29.89a4.7,4.7,0,0,1-1.36-6.5l5.07-7.75,7.68,5,7.85,2.57L37,25.69Z"/><path class="cls-3" d="M31.42,37.11l-13.8-9a4.62,4.62,0,0,1-1.8-2.22,4.65,4.65,0,0,0,2.12,4L28.87,37Z"/><path class="cls-4" d="M29.36,37.73a.33.33,0,0,1-.19-.06L17.74,30.19A5,5,0,0,1,15.55,25a.36.36,0,0,1,.42-.28.35.35,0,0,1,.28.42,4.34,4.34,0,0,0,1.89,4.45l11.42,7.48a.36.36,0,0,1-.2.66Z"/><path class="cls-8" d="M43.65,39.76l-12.2-8a2.91,2.91,0,0,1-.84-4h0a2.91,2.91,0,0,1,4-.84l12.2,8a2.92,2.92,0,0,1,.84,4h0A2.91,2.91,0,0,1,43.65,39.76Z"/><path class="cls-9" d="M46.84,34.88,45.51,34a2.91,2.91,0,0,1-3.33,4.77L31.3,31.67l.15.1,12.2,8a2.92,2.92,0,0,0,3.19-4.88Z"/><path class="cls-9" d="M52.27,31.48,51,30.61a2.91,2.91,0,0,1-3.34,4.77l-13.2-8.63h0l14.67,9.6a2.91,2.91,0,0,0,3.19-4.87Z"/><path class="cls-4" d="M50.67,37.19a3.29,3.29,0,0,1-1.79-.54l-14.66-9.6a.35.35,0,0,1-.11-.49.36.36,0,0,1,.5-.11l14.67,9.6a2.55,2.55,0,1,0,2.79-4.27L37.4,22.18a.36.36,0,1,1,.4-.6l14.67,9.6a3.27,3.27,0,0,1-1.13,5.94A3.81,3.81,0,0,1,50.67,37.19Z"/><path class="cls-4" d="M45.24,40.59a3.28,3.28,0,0,1-1.79-.53L30.69,31.7a.35.35,0,0,1-.11-.49.36.36,0,0,1,.5-.11l12.76,8.36a2.56,2.56,0,0,0,2.8-4.28l-9.31-6.09a.36.36,0,1,1,.39-.6L47,34.58a3.28,3.28,0,0,1,1.41,2.07,3.26,3.26,0,0,1-2.53,3.87A3.05,3.05,0,0,1,45.24,40.59Z"/><path class="cls-4" d="M11.58,24.21a.36.36,0,0,1-.2-.06L3.62,19.07a.35.35,0,0,1-.1-.5L13.71,3a.36.36,0,0,1,.5-.11L22,8a.36.36,0,0,1,.11.5L11.88,24a.35.35,0,0,1-.23.16ZM4.31,18.66l7.16,4.69,9.81-15L14.12,3.68Z"/><path class="cls-8" d="M23.23,11.23l8.71-3a2.87,2.87,0,0,1,2.53.32l4.86,3.17a2.92,2.92,0,0,1,.84,4l-6.1,9.31a2.91,2.91,0,0,1-4,.84h0a2.91,2.91,0,0,1-.84-4L33.74,15s-4.2,7.74-11.54,2.93"/><path class="cls-4" d="M39.8,16.72a.36.36,0,0,1-.2-.06.36.36,0,0,1-.1-.5l.37-.57a2.55,2.55,0,0,0-.74-3.53L34.28,8.89a2.5,2.5,0,0,0-2.22-.28l-8.52,2.67a.36.36,0,0,1-.45-.23.35.35,0,0,1,.23-.45l8.51-2.68a3.28,3.28,0,0,1,2.84.36l4.85,3.18A3.28,3.28,0,0,1,40.47,16l-.37.56A.36.36,0,0,1,39.8,16.72Z"/><rect class="cls-11" x="-0.01" y="6.74" width="20.5" height="10.21" transform="translate(-5.28 13.93) rotate(-56.8)"/><path class="cls-4" d="M8.9,23.58a.35.35,0,0,1-.19-.06L.16,17.93a.37.37,0,0,1-.1-.5L11.28.27a.39.39,0,0,1,.23-.15.37.37,0,0,1,.27.05l8.54,5.59a.38.38,0,0,1,.16.23.37.37,0,0,1-.05.27L9.2,23.41A.35.35,0,0,1,8.9,23.58Zm-8-6.06,7.94,5.2L19.63,6.17,11.69,1Z"/><path class="cls-2" d="M22.1,35.88,35,27.45a2.91,2.91,0,0,0,.84-4h0a2.91,2.91,0,0,0-4-.84L18.91,31a2.91,2.91,0,0,0-.85,4h0A2.93,2.93,0,0,0,22.1,35.88Z"/><path class="cls-3" d="M21.37,34.77l12.88-8.43a2.89,2.89,0,0,0,1.14-3.43,2.64,2.64,0,0,1,.43.51h0a2.91,2.91,0,0,1-.84,4L22.1,35.88a2.93,2.93,0,0,1-4-.84h0a2.77,2.77,0,0,1-.29-.6A2.89,2.89,0,0,0,21.37,34.77Z"/><path class="cls-4" d="M20.51,36.71a3.27,3.27,0,0,1-1.8-6l12.88-8.43a3.27,3.27,0,0,1,5,3.4,3.23,3.23,0,0,1-1.42,2.07L22.29,36.18h0A3.24,3.24,0,0,1,20.51,36.71ZM33.38,22.46a2.49,2.49,0,0,0-1.39.42L19.1,31.31a2.55,2.55,0,0,0,2.8,4.27l12.88-8.43a2.55,2.55,0,0,0,.74-3.53,2.5,2.5,0,0,0-1.61-1.1A2.46,2.46,0,0,0,33.38,22.46ZM22.1,35.88Z"/><path class="cls-2" d="M18,31.61,29,24.4a2.91,2.91,0,0,0,.84-4h0a2.91,2.91,0,0,0-4-.84l-11,7.21a2.92,2.92,0,0,0-.84,4h0A2.91,2.91,0,0,0,18,31.61Z"/><path class="cls-3" d="M17.27,30.51l11-7.22a2.92,2.92,0,0,0,1.14-3.43,2.59,2.59,0,0,1,.42.51h0a2.91,2.91,0,0,1-.84,4L18,31.61a2.91,2.91,0,0,1-4-.84h0a3.64,3.64,0,0,1-.3-.59A2.93,2.93,0,0,0,17.27,30.51Z"/><path class="cls-4" d="M16.4,32.45A3.28,3.28,0,0,1,13.66,31a3.28,3.28,0,0,1,.95-4.53l11-7.21a3.27,3.27,0,0,1,3.58,5.47l-11,7.21h0A3.26,3.26,0,0,1,16.4,32.45Zm11-13a2.54,2.54,0,0,0-1.39.42L15,27a2.55,2.55,0,1,0,2.8,4.27l11-7.21a2.55,2.55,0,0,0-1.4-4.69ZM18,31.61Z"/><path class="cls-2" d="M27.44,39.37l11-7.22a2.91,2.91,0,0,0,.84-4h0a2.91,2.91,0,0,0-4-.84l-11,7.21a2.93,2.93,0,0,0-.84,4h0A2.91,2.91,0,0,0,27.44,39.37Z"/><path class="cls-3" d="M26.72,38.26l11-7.21a2.93,2.93,0,0,0,1.14-3.44,3,3,0,0,1,.42.51h0a2.91,2.91,0,0,1-.84,4l-11,7.22a2.91,2.91,0,0,1-4-.84h0a3.36,3.36,0,0,1-.3-.6A2.91,2.91,0,0,0,26.72,38.26Z"/><path class="cls-4" d="M25.85,40.2a3.27,3.27,0,0,1-1.79-6l11-7.21a3.28,3.28,0,0,1,5,3.41,3.23,3.23,0,0,1-1.41,2.06l-11,7.22h0A3.25,3.25,0,0,1,25.85,40.2Zm11-13a2.57,2.57,0,0,0-1.39.42l-11,7.22a2.52,2.52,0,0,0-1.1,1.61,2.55,2.55,0,0,0,3.89,2.66l11-7.22a2.52,2.52,0,0,0,1.1-1.61,2.55,2.55,0,0,0-2-3A2.46,2.46,0,0,0,36.86,27.16ZM27.44,39.37Z"/><path class="cls-2" d="M32.88,42.86l8.7-5.68a2.91,2.91,0,0,0,.84-4h0a2.91,2.91,0,0,0-4-.84L29.69,38a2.91,2.91,0,0,0-.84,4h0A2.91,2.91,0,0,0,32.88,42.86Z"/><path class="cls-3" d="M32.16,41.75l8.7-5.67A2.93,2.93,0,0,0,42,32.64a3,3,0,0,1,.42.51h0a2.91,2.91,0,0,1-.84,4l-8.7,5.68a2.91,2.91,0,0,1-4-.85h0a3,3,0,0,1-.3-.59A2.92,2.92,0,0,0,32.16,41.75Z"/><path class="cls-4" d="M31.29,43.69a3.05,3.05,0,0,1-.67-.07,3.27,3.27,0,0,1-1.13-5.94L38.19,32a3.28,3.28,0,0,1,4.53,1,3.27,3.27,0,0,1-.94,4.53l-8.7,5.67A3.28,3.28,0,0,1,31.29,43.69ZM40,32.19a2.57,2.57,0,0,0-1.39.42l-8.7,5.67a2.56,2.56,0,0,0,.87,4.64,2.51,2.51,0,0,0,1.92-.37h0l8.7-5.67a2.52,2.52,0,0,0,1.1-1.61,2.55,2.55,0,0,0-2-3A2.46,2.46,0,0,0,40,32.19Z"/><rect class="cls-12" x="3.32" y="12.9" width="5.78" height="10.21" transform="translate(-12.25 13.34) rotate(-56.8)"/><path class="cls-2" d="M48.3,11.12l-8.72-3a2.9,2.9,0,0,0-2.53.32L32.2,11.65a2.91,2.91,0,0,0-.85,4L37.45,25a2.91,2.91,0,0,0,4,.84h0a2.91,2.91,0,0,0,.84-4l-4.54-6.94S42,22.6,49.32,17.79"/><path class="cls-4" d="M39.89,26.67a3.81,3.81,0,0,1-.67-.07,3.25,3.25,0,0,1-2.07-1.41l-6.1-9.31a3.29,3.29,0,0,1-.46-2.46A3.25,3.25,0,0,1,32,11.35l4.85-3.18a3.3,3.3,0,0,1,2.85-.36l8.71,3a.37.37,0,0,1,.23.46.36.36,0,0,1-.46.22l-8.71-3a2.56,2.56,0,0,0-2.22.28L32.39,12a2.55,2.55,0,0,0-.73,3.53l6.09,9.31a2.55,2.55,0,0,0,3.53.74A2.55,2.55,0,0,0,42,22l-4-6a10,10,0,0,1-.61-.93.36.36,0,0,1,.62-.37l.52.8a8.58,8.58,0,0,0,4.57,3.36,7.42,7.42,0,0,0,6-1.33.36.36,0,0,1,.39.6A8.13,8.13,0,0,1,43,19.52a7.72,7.72,0,0,1-2.49-1.16l2.12,3.25a3.26,3.26,0,0,1-.95,4.52A3.16,3.16,0,0,1,39.89,26.67Z"/></g></g></g></svg>