<svg xmlns="http://www.w3.org/2000/svg" viewBox="0 0 64.33 59.75"><defs><style>.cls-1{fill:#ee7160;}.cls-10,.cls-2,.cls-8{opacity:0.4;}.cls-14,.cls-3,.cls-6{opacity:0.3;}.cls-4{fill:#f9be9d;}.cls-5,.cls-8{fill:#f3986e;}.cls-7{fill:#fff;}.cls-9{opacity:0.2;}.cls-11{fill:#d16d4e;}.cls-12{fill:#ae7361;}.cls-13,.cls-14{fill:#6f4539;}</style></defs><title>valuesImage</title><g id="Capa_2" data-name="Capa 2"><g id="Capa_1-2" data-name="Capa 1"><path class="cls-1" d="M29,13.3v6.38H28a2.47,2.47,0,1,0-1.95,4,2.49,2.49,0,0,0,1.95-1h1v6.52h7v-.9a2.47,2.47,0,1,1,3,0v.9h6.33V13.3Z"/><path class="cls-2" d="M29,13.3v6.38H28a2.47,2.47,0,1,0-1.95,4,2.49,2.49,0,0,0,1.95-1h1v6.52h7v-.9a2.47,2.47,0,1,1,3,0v.9h6.33V13.3Z"/><path class="cls-1" d="M29.49,13.3v6.38h-1a2.47,2.47,0,1,0-2,4,2.49,2.49,0,0,0,2-1h1v6.52h7v-.9a2.47,2.47,0,1,1,3,0v.9h6.33V13.3Z"/><path class="cls-3" d="M41.79,13.3c.12,0,2.78.31,2.73,1s-2.39,2.88-3.1,4.14c-.85,1.49-.52,2.29.19,2.32s2.32-2.54,2.32-2.54l1.86-.44V13.3Z"/><path class="cls-4" d="M60.56,4,53.4,9.8a2.88,2.88,0,0,1-2.06.61h0L46.71,9l-6.29-.44a30.79,30.79,0,0,0-3.2,1.36C37.06,10.14,35,13.3,35,13.3h3.82s1.77-.83,2-.89,4.06.74,4.55,1.29-.79,2.09-2.6,3.7-2,2.78-1.19,3.36,2.1-1.31,2.79-1.84.94-.23,3.36-1,6.61-2.6,6.61-2.6l10-4.41Z"/><path class="cls-5" d="M36,13.31a.44.44,0,0,1,0-.09l.14-.26.55-.93a2.23,2.23,0,0,1,.2-.3,1.25,1.25,0,0,1,.3-.25L38,11l1.65-1,.24-.15h0l3.36-.1,1,0h.27l-.27,0-1,0-3.36.13h0l-.24.15L38,11.08c-.49.33-1,.54-1.21,1l-.56.92-.16.25Z"/><path class="cls-5" d="M40.9,11.8a.76.76,0,0,1,0,.33.7.7,0,0,1-.06.32.86.86,0,0,1,0-.33A.83.83,0,0,1,40.9,11.8Z"/><path class="cls-5" d="M38.35,12.85s.11.08.19.21.15.24.13.25-.1-.08-.19-.21A.79.79,0,0,1,38.35,12.85Z"/><path class="cls-5" d="M45.62,13.08a1.45,1.45,0,0,1,0,.8,1.66,1.66,0,0,1-.32.73,4.59,4.59,0,0,0,.25-.75A4.54,4.54,0,0,0,45.62,13.08Z"/><path class="cls-5" d="M52.84,10.52a.72.72,0,0,1-.24.09,1.67,1.67,0,0,1-.61,0,3.88,3.88,0,0,1-.58-.16.9.9,0,0,1-.23-.1.88.88,0,0,1,.25,0,4,4,0,0,0,.58.13A2.75,2.75,0,0,0,52.84,10.52Z"/><g class="cls-6"><path class="cls-7" d="M43,19.72a.56.56,0,0,0-.53-.35.88.88,0,0,0-.6.27,2.41,2.41,0,0,0-.41.54h0a1.18,1.18,0,0,0,.68.6,1.35,1.35,0,0,0,.7-.46A.7.7,0,0,0,43,19.72Z"/></g><path class="cls-5" d="M44.81,18.22s-.13-.07-.26-.19-.22-.24-.2-.25a.89.89,0,0,1,.25.19C44.73,18.1,44.83,18.21,44.81,18.22Z"/><path class="cls-5" d="M44.93,18.2s-.09-.12-.21-.26-.22-.24-.2-.26a.64.64,0,0,1,.26.22C44.9,18,45,18.19,44.93,18.2Z"/><path class="cls-5" d="M47,9.69a2.16,2.16,0,0,0-.57-.08,1.85,1.85,0,0,0-.56.15s0-.06.14-.11a1.08,1.08,0,0,1,.84-.05C47,9.64,47,9.68,47,9.69Z"/><path class="cls-8" d="M37.26,11.5S39.17,9.66,40,9.57s4.43.12,4.43.12l-4.52.16Z"/><path class="cls-5" d="M43,19.75s-.06-.11-.17-.2-.23-.1-.23-.12.15,0,.28.06S43,19.75,43,19.75Z"/><path class="cls-4" d="M11.17,59.7l5.2-7.24-4.1-7L24,39.56s1.17,1.31-.81,5.27c0,0,2,4.48,1.31,6.64s-1,2.14-1,2.14l-2,6.14Z"/><path class="cls-1" d="M30.24,36.37a2.45,2.45,0,0,0-2.08,1h-.51v-7H21.31v.9a2.44,2.44,0,0,1,1,2.07,2.47,2.47,0,0,1-4.93-.13,2.45,2.45,0,0,1,1-1.94v-.9h-7V45a1.19,1.19,0,0,0,1.19,1.19H27.65V40.34h.51a2.47,2.47,0,1,0,2.08-4Z"/><path class="cls-9" d="M30.24,36.37a2.45,2.45,0,0,0-2.08,1h-.51v-7H21.31v.9a2.44,2.44,0,0,1,1,2.07,2.47,2.47,0,0,1-4.93-.13,2.45,2.45,0,0,1,1-1.94v-.9h-7V45a1.19,1.19,0,0,0,1.19,1.19H27.65V40.34h.51a2.47,2.47,0,1,0,2.08-4Z"/><path class="cls-1" d="M31.13,36.37a2.45,2.45,0,0,0-2.08,1h-.51v-7H22.2v.9a2.44,2.44,0,0,1,1,2.07,2.47,2.47,0,1,1-4-2.07v-.9h-7V45a1.19,1.19,0,0,0,1.19,1.19H28.54V40.34h.51a2.47,2.47,0,1,0,2.08-4Z"/><g class="cls-6"><path d="M24.39,42.14a4.1,4.1,0,0,0-.2-1.26,1.56,1.56,0,0,0-.84-.92l0,.14a16.42,16.42,0,0,1-.28,5.09,1.65,1.65,0,0,0-.06.66.5.5,0,0,0,.48.38H24a7.76,7.76,0,0,0,.17-.76A16.89,16.89,0,0,0,24.39,42.14Z"/></g><path class="cls-5" d="M18.33,46.25a1.13,1.13,0,0,1,.31.22,1.24,1.24,0,0,1,.27.26s-.15-.08-.31-.21S18.32,46.27,18.33,46.25Z"/><path class="cls-5" d="M17.9,46.9a4.74,4.74,0,0,0-.44-.36,3.34,3.34,0,0,0-.53-.21.88.88,0,0,1,.56.15A.87.87,0,0,1,17.9,46.9Z"/><path class="cls-4" d="M23.31,53.39c.13-.12,1.93-.92.23-7.15a34.7,34.7,0,0,0,.36-5.44.92.92,0,0,0-1.54-.66,5.31,5.31,0,0,0-.62,2.14c-.55,2.51-.61,2.95-1.52,3.72s-3,.33-3,.33Z"/><path class="cls-5" d="M23,53.18l0-.07.09-.19a6.66,6.66,0,0,0,.28-.7,7.19,7.19,0,0,0,.3-3.81c-.08-.41-.19-.78-.24-1.1a2.56,2.56,0,0,1,0-.77l.05-.2,0-.06s0,.09-.05.27a2.56,2.56,0,0,0,0,.75c0,.31.17.68.25,1.1a6.51,6.51,0,0,1,.14,1.38,7.06,7.06,0,0,1-.45,2.46,6.56,6.56,0,0,1-.31.7l-.1.18Z"/><g class="cls-10"><path class="cls-5" d="M24.36,49.32a7.68,7.68,0,0,0-.4-1.55,3.73,3.73,0,0,0-.51-1.11c-.1.82.42,1.49.42,2.64a8.67,8.67,0,0,1-.52,3.16A4.44,4.44,0,0,0,24.36,49.32Z"/></g><g class="cls-6"><path class="cls-7" d="M23.41,40.43a.31.31,0,0,0-.23-.14,1.44,1.44,0,0,0-1,.09,3,3,0,0,0,0,.67,1.06,1.06,0,0,0,.22.62.54.54,0,0,0,.58.17.88.88,0,0,0,.41-.61,2.78,2.78,0,0,0,.07-.57A.43.43,0,0,0,23.41,40.43Z"/></g><path class="cls-5" d="M23,41.77s-.07.12-.24.13-.26-.09-.25-.11a1.44,1.44,0,0,0,.25,0A1.19,1.19,0,0,0,23,41.77Z"/><path class="cls-5" d="M22.9,43.38a3.67,3.67,0,0,0-.43-.08,4.19,4.19,0,0,0-.43,0,.62.62,0,0,1,.44-.11C22.74,43.24,22.92,43.36,22.9,43.38Z"/><path class="cls-5" d="M22.63,43.64s-.12,0-.26,0-.25-.08-.24-.1.11,0,.25,0S22.63,43.62,22.63,43.64Z"/><path class="cls-5" d="M22.9,44.2a.72.72,0,0,1-.52,0,.83.83,0,0,1-.45-.27,4.9,4.9,0,0,0,.47.2A4,4,0,0,0,22.9,44.2Z"/><path class="cls-5" d="M21.13,44.67l-.06.15c0,.09-.11.21-.2.37A5.51,5.51,0,0,1,20,46.27a5.89,5.89,0,0,1-1.12.82l-.38.18-.14,0s.19-.1.49-.28a5.54,5.54,0,0,0,1.1-.82,6.92,6.92,0,0,0,.87-1.06C21,44.86,21.12,44.67,21.13,44.67Z"/><g class="cls-10"><path class="cls-5" d="M15.75,46.24c.71.22,1.22.88,1.93,1A1.87,1.87,0,0,0,19,47.07a3.83,3.83,0,0,0,1-.86Z"/></g><path class="cls-3" d="M13,46.62l3.8-.13,3-.09.18-.19-7.25,0Z"/><path class="cls-1" d="M38.81,30.2v-.93a2.47,2.47,0,1,0-3,0v.93h-7v7h.52a2.47,2.47,0,1,1,0,3h-.52v5.88H45.14V30.2Z"/><path class="cls-3" d="M38.81,30.2v-.93a2.47,2.47,0,1,0-3,0v.93h-7v7h.52a2.47,2.47,0,1,1,0,3h-.52v5.88H45.14V30.2Z"/><path class="cls-3" d="M38.81,30.2v-.93a2.47,2.47,0,1,0-3,0v.93h-7v7h.52a2.47,2.47,0,1,1,0,3h-.52v5.88H45.14V30.2Z"/><path class="cls-1" d="M39.41,30.2v-.93a2.47,2.47,0,0,0-1.5-4.42,2.47,2.47,0,0,0-1.51,4.42v.93h-7v7H30a2.47,2.47,0,1,1,0,3h-.52v5.88H45.75V30.2Z"/><path class="cls-3" d="M39.41,30.2v-.93a2.47,2.47,0,0,0-1.5-4.42,2.47,2.47,0,0,0-1.51,4.42v.93h-7v7H30a2.47,2.47,0,1,1,0,3h-.52v5.88H45.75V30.2Z"/><g class="cls-6"><path d="M43.42,44.32c-.44-.19-.83-.47-1.28-.63-.88-.3-2.48-.44-2.43.77l2.43,1.67,3.6,0V44.52A5.25,5.25,0,0,1,43.42,44.32Z"/></g><g class="cls-6"><path d="M45,34.79a3.31,3.31,0,0,0,.31,1.31c-.45-.06-.72-.51-1-.84s-.88-.59-1.17-.24a1,1,0,0,0-.24.81,18.2,18.2,0,0,0,1.65,3.76c.32.66.92,1.85,1.19,2.54V33.47C45.3,33.59,45.05,34.34,45,34.79Z"/></g><path class="cls-5" d="M39.74,44.28c-.13.21.14.49.23.56.63.53,2.89,2.38,3.55,3.08S48.38,50.8,49,51.19s1.28.34,1.9,1.2,1.82,7.31,1.82,7.31h8.46l-5.56-11s-.48-7.09-.67-7.87-2-3.71-2.64-3.9a.88.88,0,0,0-.9.11s-1-1.44-1.82-1.55a1.89,1.89,0,0,0-1.14.1s-1.4-2.69-2.26-2.36c-.59.22-.64.63-.27,1.45.28.61,2,4,2.6,5.53.22.57-.17.27-.17.27s-3.41-5.72-4.24-6.07c-.67-.29-1.42.3-.92,1.25s3,6.29,3,6.29A20.4,20.4,0,0,1,47,46.22a.08.08,0,0,1-.09.1,8.25,8.25,0,0,1-2.77-.93C43.29,44.8,40.72,42.8,39.74,44.28Z"/><path class="cls-11" d="M48,34.86l.13.2.34.58c.28.49.66,1.17,1.07,1.93s.74,1.47,1,2a5.72,5.72,0,0,1,.26.61l.09.23a1.14,1.14,0,0,1-.11-.22l-.29-.6c-.24-.51-.58-1.21-1-2s-.78-1.45-1-1.94l-.31-.59A.85.85,0,0,1,48,34.86Z"/><path class="cls-11" d="M51.16,36.86l.11.12.26.32a9.46,9.46,0,0,1,.75,1.16,12.57,12.57,0,0,1,.58,1.25c.06.16.11.3.15.39s.05.14,0,.14,0,0-.07-.13l-.17-.38c-.14-.32-.34-.77-.6-1.24a11.74,11.74,0,0,0-.72-1.16L51.24,37Z"/><g class="cls-6"><path class="cls-7" d="M46.64,33.41A2.08,2.08,0,0,1,47,34a.5.5,0,0,1-.29.52c-.32.11-.52-.13-.68-.32a1.42,1.42,0,0,1-.25-.46s0-.2.4-.33A.65.65,0,0,1,46.64,33.41Z"/></g><g class="cls-6"><path class="cls-7" d="M44.05,34.6a2.27,2.27,0,0,1,.41.63.46.46,0,0,1-.26.51.82.82,0,0,1-.78-.41,2.46,2.46,0,0,1-.25-.46s.08-.2.45-.29A.76.76,0,0,1,44.05,34.6Z"/></g><g class="cls-6"><path class="cls-7" d="M40.66,45.32c.12.09.3,0,.34-.16a.7.7,0,0,0,0-.43,1.6,1.6,0,0,0-.32-.49.52.52,0,0,0-.5-.2s-.45.32-.41.48A5.13,5.13,0,0,0,40.66,45.32Z"/></g><path class="cls-11" d="M48.91,37.59s-.22,0-.47.13S48,38,48,37.94a.83.83,0,0,1,.41-.28A.79.79,0,0,1,48.91,37.59Z"/><path class="cls-11" d="M48.85,37.91s-.14.08-.33.13a1,1,0,0,1-.34.05s.14-.08.33-.13A1,1,0,0,1,48.85,37.91Z"/><path class="cls-11" d="M46.27,38.35a1.34,1.34,0,0,1-.37.23,1.21,1.21,0,0,1-.41.16,1.31,1.31,0,0,1,.38-.23A1.41,1.41,0,0,1,46.27,38.35Z"/><path class="cls-11" d="M46.14,38.19a2.57,2.57,0,0,0-.38.1,2.41,2.41,0,0,0-.33.21s.08-.18.3-.28A.52.52,0,0,1,46.14,38.19Z"/><g class="cls-6"><path class="cls-11" d="M48.54,35.83l2.2,4.31A7.81,7.81,0,0,0,48.54,35.83Z"/></g><g class="cls-6"><path class="cls-11" d="M51.35,37.07c.12-.09.28,0,.48.23a9,9,0,0,1,.8,1.24A3.08,3.08,0,0,1,53,40a16.52,16.52,0,0,0-1.64-2.89"/></g><path class="cls-11" d="M43.12,46.47s-.09.13-.22.26a1.92,1.92,0,0,1-.24.25s.06-.15.19-.3A.74.74,0,0,1,43.12,46.47Z"/><path class="cls-11" d="M43.29,46.72s0,.17-.15.28-.31.11-.31.09a2.81,2.81,0,0,0,.26-.14C43.22,46.85,43.27,46.72,43.29,46.72Z"/><path class="cls-11" d="M47.39,46.24a.57.57,0,0,1-.29.09c-.17,0-.3,0-.3,0a.77.77,0,0,1,.29-.06A.74.74,0,0,1,47.39,46.24Z"/><g class="cls-6"><path class="cls-11" d="M47,46.27a.8.8,0,0,0,.24-.55,2.54,2.54,0,0,0-.07-.61,10.19,10.19,0,0,0-.61-1.76c.12,1,.26,1.95.4,2.92"/></g><g class="cls-6"><path class="cls-11" d="M48.18,41.28a.91.91,0,0,1,.82.9"/></g><g class="cls-6"><path class="cls-11" d="M49.88,40.74a1,1,0,0,1,1,.48"/></g><path class="cls-1" d="M28,29.61V23.08H27a2.47,2.47,0,1,1,0-3h1V13.7H11.69V29.61h7v.93a2.47,2.47,0,1,0,3,0v-.93Z"/><path class="cls-3" d="M28,29.61V23.08H27a2.47,2.47,0,1,1,0-3h1V13.7H11.69V29.61h7v.93a2.47,2.47,0,1,0,3,0v-.93Z"/><path class="cls-9" d="M28,29.61V23.08H27a2.47,2.47,0,1,1,0-3h1V13.7H11.69V29.61h7v.93a2.47,2.47,0,1,0,3,0v-.93Z"/><path class="cls-1" d="M28.68,29.61V23.08h-1a2.47,2.47,0,1,1,0-3h1V13.7H12.37V29.61h7v.93a2.47,2.47,0,1,0,3,0v-.93Z"/><path class="cls-3" d="M28.68,29.61V23.08h-1a2.47,2.47,0,1,1,0-3h1V13.7H12.37V29.61h7v.93a2.47,2.47,0,1,0,3,0v-.93Z"/><path class="cls-3" d="M12.72,14.12l1,.78s.79,1.44.58,1.42a12.64,12.64,0,0,0-1.49,2.27s-.39.85.76.75c0,0,.49,1.27,1.49,1.12l1-.16s.19,1.61,1.07,1.34a10.45,10.45,0,0,0,2.23-1.25s-.35,1.39.81,1.54,3.09-5,3.09-5l-1-3.2-9.53.35Z"/><path class="cls-12" d="M11.27,6.75s9.53,3.47,10.43,4,2.09,6,1.94,6.4-2.58,4.34-2.58,4.34-1.62,0-1.31-1.3a4.73,4.73,0,0,1,.77-1.65s-2.94,2.46-3.6,2.4A.9.9,0,0,1,16,19.81L14.93,20a.83.83,0,0,1-.94-.57.67.67,0,0,1,.28-.78l-1.11.13a.4.4,0,0,1-.44-.37,1.65,1.65,0,0,1,.29-.88c.53-.82,1.7-1,1.72-1.06a9,9,0,0,0-.2-.94l-.26-1.41s-4.39.25-5.7-.69A4.85,4.85,0,0,1,7,10.83c-.12-.06-7-5.09-7-5.18S5.15,0,5.15,0Z"/><path class="cls-13" d="M16.19,12.71l.06,0a.45.45,0,0,1,.12.12,1.5,1.5,0,0,1,.22.61h0c.07.33.16.75.23,1.23,0,.24.08.5.1.77a5.77,5.77,0,0,1,0,.84,1.78,1.78,0,0,1-.07.39,3.41,3.41,0,0,1-.17.33,2.8,2.8,0,0,1-.46.55,4.76,4.76,0,0,1-1,.67,6.86,6.86,0,0,1-.73.32,1,1,0,0,1-.21.07l-.07,0,.06,0,.21-.08c.17-.08.42-.19.71-.35a5.15,5.15,0,0,0,1-.67,3.26,3.26,0,0,0,.44-.53,2,2,0,0,0,.16-.33,1,1,0,0,0,0-.18,1.1,1.1,0,0,0,0-.18,4.65,4.65,0,0,0,0-.84c0-.26-.06-.52-.09-.76-.07-.48-.15-.9-.22-1.23h0a1.41,1.41,0,0,0-.19-.6A.65.65,0,0,0,16.19,12.71Z"/><path class="cls-13" d="M16,19.81l.07,0,.23-.14c.19-.11.47-.28.81-.5a10.74,10.74,0,0,0,1.13-.85,5.29,5.29,0,0,0,.58-.58,2,2,0,0,0,.43-.77,2.61,2.61,0,0,0,0-.88c0-.29-.05-.57-.08-.83L19,13.81c0-.2,0-.38-.07-.53a1,1,0,0,0-.14-.38.84.84,0,0,0-.24-.24l.08,0a.6.6,0,0,1,.18.18,1.17,1.17,0,0,1,.16.39c0,.16,0,.34.08.54l.19,1.4.09.84a2.76,2.76,0,0,1-.05.9,2,2,0,0,1-.44.79,4.75,4.75,0,0,1-.6.59,10.57,10.57,0,0,1-1.15.84c-.34.22-.62.38-.82.49l-.23.12S16,19.82,16,19.81Z"/><path class="cls-13" d="M20.47,18.59a1.3,1.3,0,0,1,.15-.17c.09-.12.22-.29.37-.51a7.47,7.47,0,0,0,.44-.82c0-.08.07-.16.1-.25a2,2,0,0,0,.09-.26,2.25,2.25,0,0,0,0-.58,10.67,10.67,0,0,0-.21-1.12c-.08-.34-.16-.65-.23-.9L21,13.37a.73.73,0,0,1-.05-.22l.08.21c.05.14.12.35.19.6s.17.56.25.91A10.4,10.4,0,0,1,21.69,16a2.41,2.41,0,0,1,0,.6,1.25,1.25,0,0,1-.1.27c0,.09-.07.17-.1.25a6,6,0,0,1-.46.82,4.66,4.66,0,0,1-.39.5C20.53,18.55,20.47,18.6,20.47,18.59Z"/><path class="cls-13" d="M10.89,7.18a3.37,3.37,0,0,1-.62.36,3.39,3.39,0,0,1-.66.29,3.37,3.37,0,0,1,.62-.36A3.13,3.13,0,0,1,10.89,7.18Z"/><g class="cls-6"><path class="cls-13" d="M16.42,17.39C17,16.75,17,16,17,14.9a5.36,5.36,0,0,1,0,2c-.18.43-.58.69-1.26,1A7.94,7.94,0,0,0,16.42,17.39Z"/></g><path class="cls-14" d="M21.25,14.12a9.61,9.61,0,0,1,.64,2.47,3.57,3.57,0,0,1-1.37,1.93,5.71,5.71,0,0,0,1.15-2.1A11.06,11.06,0,0,0,21.25,14.12Z"/><g class="cls-6"><path class="cls-13" d="M14.27,19.66a3.77,3.77,0,0,1,1.15-.31.49.49,0,0,1,.24,0,.2.2,0,0,1,.12.19c0,.09-.13.13-.23.16a5.88,5.88,0,0,1-.73.14.65.65,0,0,1-.31,0,.33.33,0,0,1-.24-.17"/></g><g class="cls-6"><path class="cls-13" d="M16.61,20.79a1.69,1.69,0,0,1,.6-.65,1.08,1.08,0,0,1,.31-.19.45.45,0,0,1,.36,0,.28.28,0,0,1,.17.29.44.44,0,0,1-.17.23,1.92,1.92,0,0,1-.91.4.46.46,0,0,1-.41-.09"/></g><g class="cls-6"><path class="cls-13" d="M13.1,18.66a2.45,2.45,0,0,0,1.14-.12c.06,0,.14-.06.14-.13s-.07-.09-.12-.11a1.26,1.26,0,0,0-1.18.21l-.07.07s0,.07,0,.09a0,0,0,0,0,.08,0"/></g><g class="cls-6"><path class="cls-13" d="M21,21.34l.43-.73a.88.88,0,0,0,.13-.3.31.31,0,0,0-.11-.29.26.26,0,0,0-.24,0,.6.6,0,0,0-.21.14,2.1,2.1,0,0,0-.6.87.26.26,0,0,0,0,.17.24.24,0,0,0,.17.12,1.38,1.38,0,0,0,.49.06"/></g></g></g></svg>