<svg xmlns="http://www.w3.org/2000/svg" viewBox="0 0 67.03 50.82"><defs><style>.cls-1{fill:#fff;}.cls-2{fill:#010101;}</style></defs><title>visionImage</title><g id="Capa_2" data-name="Capa 2"><g id="Capa_1-2" data-name="Capa 1"><path class="cls-1" d="M12.51,35.21l-.07,0c-.07-.23-.15-.46-.22-.69a58.9,58.9,0,0,1,7.4,3.29l1.52.73-.78.65a29.79,29.79,0,0,0-4-2.07C15.05,36.5,13.82,35.79,12.51,35.21Z"/><path class="cls-1" d="M19.28,40l-.8.64c-.9-.38-1.75-.87-2.67-1.22a12,12,0,0,0-2.41-.93c-.09-.36-.19-.73-.29-1.09,1,.47,2,.85,2.92,1.29A29.41,29.41,0,0,0,19.28,40Z"/><path class="cls-1" d="M1.06,18.29c1.56,3.55,4.89,6,7,9.23a.47.47,0,0,1,.14-.08c4.91-1.92,9.73-4.05,14.5-6.27-.45-.1-.89-.2-1.34-.28a30.22,30.22,0,0,1-3.46-.67c-.11,0-.05-.18.05-.16,1.72.33,3.46.61,5.19.9l1.46-.69c-.75-.15-1.49-.34-2.25-.47a18.57,18.57,0,0,1-3.14-.72.06.06,0,0,1,0-.12,23.41,23.41,0,0,0,3.12.55c.92.13,1.82.37,2.74.53l1.05-.5c-1.81-.34-3.6-.77-5.41-1.12-.05,0,0-.1,0-.1,2,.23,3.93.65,5.9,1l1.26-.6a29.07,29.07,0,0,1-5.72-1.19.07.07,0,0,1,0-.14c2.06.42,4.14.68,6.2,1.08l1.35-.66a32.69,32.69,0,0,1-5.64-1.19s0-.08,0-.08c2.06.11,4.13.7,6.17,1l.91-.44A36.39,36.39,0,0,0,26,16a.1.1,0,0,1,0-.19,11.86,11.86,0,0,1,2.71.42c1,.23,1.94.37,2.87.66l0,0,1.05-.52c-1.55-.32-3.07-.82-4.63-1.06-.12,0-.12-.2,0-.19,1.73.19,3.44.66,5.15,1l1.06-.52a34.69,34.69,0,0,1-4.18-.82c-.16,0-.08-.29.08-.25a41.94,41.94,0,0,0,4.61.82l.85-.42c-1.2-.17-2.39-.43-3.58-.64-.15,0-.14-.26,0-.23,1.34.22,2.68.46,4,.65l.74-.36c-1-.15-2-.38-2.93-.57-.11,0-.08-.21,0-.19,1.11.18,2.26.28,3.37.53l1-.47c-.93-.13-1.85-.36-2.78-.51-.12,0-.11-.21,0-.19,1.08.14,2.15.33,3.23.47l.31-.15.56-.28c-.58-.07-1.16-.17-1.74-.25-.11,0-.11-.2,0-.19l2.23.19.55-.27a7.66,7.66,0,0,1-.95-.21c-.16-.05-.08-.3.07-.25a6.33,6.33,0,0,0,1.36.22l.64-.32h-.09L41,11.79a.12.12,0,0,1,0-.23,5.67,5.67,0,0,1,1.23.09c4-2,8-4,11.88-6.1,3.25-1.72,7.42-4,10.57-4.65-2.49.17-5,1.23-7.31,2-2.59.82-5.19,1.58-7.82,2.26s-5.47,1.41-8.21,2.11l.81.56c.2.13,0,.46-.19.33a14.79,14.79,0,0,0-1.3-.71L40,7.61a11.81,11.81,0,0,0,1.71,1,.19.19,0,0,1-.14.34,14.81,14.81,0,0,1-2.43-1.13l-6,1.57c-5.46,1.44-10.86,3.07-16.28,4.66-2.67.77-5.34,1.58-8.07,2.13a37.25,37.25,0,0,0-7.49,2A.61.61,0,0,1,1.06,18.29Zm10.82,7.14c-.27-.3-.45-.66-.69-1s-.61-.88-.94-1.31c-.08-.1.1-.25.19-.15.59.71,1.09,1.48,1.67,2.2C12.24,25.35,12,25.59,11.88,25.43Zm-.74.35c-.59-1.19-1.77-2.07-2.31-3.3,0,0,0,0,0,0,.31.05.76.8.93,1a10.28,10.28,0,0,1,1.65,2.14C11.52,25.8,11.24,26,11.14,25.78Zm-.56.14a11.68,11.68,0,0,0-1.44-1.78c-.61-.71-1.28-1.36-1.94-2-.12-.11,0-.28.17-.18.7.62,1.37,1.25,2,1.93a8.62,8.62,0,0,1,1.51,1.84C11,25.94,10.69,26.13,10.58,25.92Zm-.9.53a22.54,22.54,0,0,0-4-4.84s0-.1,0-.09c.75.19,1.49,1.24,2,1.8A32.22,32.22,0,0,1,10,26.24C10.18,26.45,9.83,26.66,9.68,26.45ZM9,26.63a41.24,41.24,0,0,0-4.62-5.51c-.09-.1.05-.25.14-.16a30,30,0,0,1,4.8,5.47A.19.19,0,0,1,9,26.63ZM3.29,20.45a40.33,40.33,0,0,0,3.06,3.36,20.8,20.8,0,0,1,2.2,3,.19.19,0,0,1-.33.2,25.1,25.1,0,0,0-2.65-3.58,19.8,19.8,0,0,1-2.46-2.89A.11.11,0,0,1,3.29,20.45Z"/><path class="cls-1" d="M19.38,36.52c2.55,1.27,5.16,2.44,7.74,3.66,2.43,1.15,4.85,2.33,7.29,3.45a30.13,30.13,0,0,1,5.46,2.92,30.64,30.64,0,0,0,2-5.33,59.15,59.15,0,0,1,2.37-5.85c1.9-3.95,4.12-7.79,6.29-11.6,2.29-4,4.74-8,7.15-11.95,2.12-3.48,4.66-6.67,6.93-10.06C60.7,4.62,56.54,7.22,52.5,9.93c-4.44,3-9,5.86-13.62,8.48s-9.2,4.92-13.62,7.74c-2.31,1.47-4.57,3-6.81,4.6a32,32,0,0,1-5,3.07A62.17,62.17,0,0,1,19.38,36.52ZM53.69,10c2.91-1.69,5.37-4.08,8.19-5.92.32-.21.63.3.31.5-2.83,1.83-5.36,4.09-8.35,5.67A.15.15,0,0,1,53.69,10ZM23.44,37.81c-1.37-.54-2.73-1.09-4.06-1.69s-2.72-1.49-4.16-2a.3.3,0,0,1-.18-.17l-.16.07c-.33.13-.48-.4-.15-.52,2.93-1.14,5.11-3.62,7.9-5a.13.13,0,0,1,.13.22c-2.36,1.62-4.51,3.68-7.12,4.93,1.1.47,2.12,1.12,3.19,1.66,1.55.79,3.14,1.48,4.7,2.25C23.66,37.64,23.57,37.86,23.44,37.81Z"/><path class="cls-1" d="M18.27,40.86c-.26.21-.52.41-.77.63l0,0a36.88,36.88,0,0,1-3.73-1.58l-.18-.78c.82.22,1.68.64,2.47.91S17.51,40.62,18.27,40.86Z"/><path class="cls-1" d="M20.16,39.33l-.71.58c-2.22-.88-4.39-2.09-6.51-3.18l0,0c-.08-.28-.16-.55-.25-.82,1.29.6,2.53,1.28,3.84,1.82S19,38.71,20.16,39.33Z"/><path class="cls-1" d="M8.47,28.49a129.17,129.17,0,0,0,14.92-6.42q7.49-3.62,14.92-7.36c5.1-2.57,10.17-5.21,15.17-8,1.86-1,4-1.8,5.82-2.87a30.21,30.21,0,0,1,4.28-2.27c-4,2.31-7.72,5-11.56,7.52C47.65,12,43.25,14.77,38.7,17.29S29.47,22.16,25,25q-3.48,2.19-6.83,4.55A27,27,0,0,1,12,33.11a.65.65,0,0,0-.28.2.55.55,0,0,0,0,1c.32,1.67.59,3.34.85,5-.46-1-.92-2-1.35-2.94a71.43,71.43,0,0,1-3-7.84l0,0Z"/><path class="cls-1" d="M17.15,41.8c-.25.24-.48.49-.71.74l-2.4-1c0-.29-.1-.59-.16-.88.53.21,1.08.39,1.61.6A10.88,10.88,0,0,0,17.15,41.8Z"/><path class="cls-1" d="M14.63,44.23c-.1-.31-.21-.62-.32-.93a5,5,0,0,0,1,.41A5.7,5.7,0,0,1,14.63,44.23Z"/><path class="cls-1" d="M16.14,42.86c-.16.18-.33.37-.51.54a13,13,0,0,1-1.43-.76l-.06-.48c.3.12.61.2.91.31Z"/><path class="cls-2" d="M14.72,45.3a.64.64,0,0,0,.18-.06c1.37-.74,2.13-2.09,3.27-3.11a26.64,26.64,0,0,0,3.52-3.36c1.77.83,3.56,1.63,5.34,2.44,2.31,1.06,4.6,2.2,6.95,3.19a25,25,0,0,1,6.21,3.25c.3.24.7-.12.53-.4l0,0a28,28,0,0,0,2.07-5.37,57.07,57.07,0,0,1,2.55-6.34c2-3.95,4.11-7.82,6.29-11.64,2.29-4,4.7-8,7.07-12C60.88,8.23,63.88,5,65.66,1.17A.26.26,0,0,0,65.48.8a.27.27,0,0,0-.22-.11.12.12,0,0,0-.1-.09C62.61.26,60,1.34,57.55,2c-2.6.74-5.21,1.48-7.84,2.13q-4.78,1.15-9.57,2.34c-.51-.31-1-.61-1.54-.87-.25-.13-.55.22-.31.41a9.5,9.5,0,0,0,1,.68l-.49.12a6.08,6.08,0,0,0-.88-.45.3.3,0,0,0-.3.53l.24.15L33.21,8.24C27.59,9.69,22,11.34,16.47,13c-2.67.76-5.34,1.57-8.07,2.11a36.64,36.64,0,0,0-7.5,2,.61.61,0,0,0-.24.17.36.36,0,0,0-.64.31c1.29,4.41,5.23,7.1,7.43,11a.4.4,0,0,0,.33.23A48.92,48.92,0,0,0,10.56,37c.93,2.21,1.78,4.47,2.7,6.69.06.36.11.72.17,1.07a.39.39,0,0,0,.43.33A.54.54,0,0,0,14.72,45.3ZM8.25,28.56l0,0,.19,0a129.17,129.17,0,0,0,14.92-6.42q7.49-3.62,14.92-7.36c5.1-2.57,10.17-5.21,15.17-8,1.86-1,4-1.8,5.82-2.87a30.21,30.21,0,0,1,4.28-2.27c-4,2.31-7.72,5-11.56,7.52C47.65,12,43.25,14.77,38.7,17.29S29.47,22.16,25,25q-3.48,2.19-6.83,4.55A27,27,0,0,1,12,33.11a.65.65,0,0,0-.28.2.55.55,0,0,0,0,1c.32,1.67.59,3.34.85,5-.46-1-.92-2-1.35-2.94A71.43,71.43,0,0,1,8.25,28.56ZM64.68.9c-3.15.69-7.32,2.93-10.57,4.65-3.93,2.09-7.9,4.12-11.88,6.1A5.67,5.67,0,0,0,41,11.56a.12.12,0,0,0,0,.23l.66.09h.09l-.64.32A6.33,6.33,0,0,1,39.74,12c-.15-.05-.23.2-.07.25a7.66,7.66,0,0,0,.95.21l-.55.27-2.23-.19c-.12,0-.12.17,0,.19.58.08,1.16.18,1.74.25l-.56.28-.31.15c-1.08-.14-2.15-.33-3.23-.47-.12,0-.13.17,0,.19.93.15,1.85.38,2.78.51l-1,.47c-1.11-.25-2.26-.35-3.37-.53-.11,0-.14.17,0,.19,1,.19,1.95.42,2.93.57l-.74.36c-1.34-.19-2.68-.43-4-.65-.15,0-.16.2,0,.23,1.19.21,2.38.47,3.58.64l-.85.42a41.94,41.94,0,0,1-4.61-.82c-.16,0-.24.2-.08.25a34.69,34.69,0,0,0,4.18.82l-1.06.52c-1.71-.34-3.42-.81-5.15-1-.12,0-.12.17,0,.19,1.56.24,3.08.74,4.63,1.06l-1.05.52,0,0c-.93-.29-1.92-.43-2.87-.66A11.86,11.86,0,0,0,26,15.77.1.1,0,0,0,26,16a36.39,36.39,0,0,1,5.21,1.12l-.91.44c-2-.31-4.11-.9-6.17-1-.05,0-.06.07,0,.08a32.69,32.69,0,0,0,5.64,1.19l-1.35.66c-2.06-.4-4.14-.66-6.2-1.08a.07.07,0,0,0,0,.14,29.07,29.07,0,0,0,5.72,1.19l-1.26.6c-2-.32-3.92-.74-5.9-1-.06,0-.07.09,0,.1,1.81.35,3.6.78,5.41,1.12l-1.05.5c-.92-.16-1.82-.4-2.74-.53A23.41,23.41,0,0,1,19.2,19a.06.06,0,0,0,0,.12,18.57,18.57,0,0,0,3.14.72c.76.13,1.5.32,2.25.47L23.1,21c-1.73-.29-3.47-.57-5.19-.9-.1,0-.16.13-.05.16a30.22,30.22,0,0,0,3.46.67c.45.08.89.18,1.34.28-4.77,2.22-9.59,4.35-14.5,6.27a.47.47,0,0,0-.14.08c-2.07-3.26-5.4-5.68-7-9.23a.61.61,0,0,0,.18-.05,37.25,37.25,0,0,1,7.49-2c2.73-.55,5.4-1.36,8.07-2.13,5.42-1.59,10.82-3.22,16.28-4.66l6-1.57A14.81,14.81,0,0,0,41.55,9a.19.19,0,0,0,.14-.34,11.81,11.81,0,0,1-1.71-1l.68-.17a14.79,14.79,0,0,1,1.3.71c.22.13.39-.2.19-.33l-.81-.56c2.74-.7,5.47-1.39,8.21-2.11s5.23-1.44,7.82-2.26C59.73,2.13,62.19,1.07,64.68.9ZM19.38,36.52a62.17,62.17,0,0,0-5.94-2.7,32,32,0,0,0,5-3.07c2.24-1.59,4.5-3.13,6.81-4.6,4.42-2.82,9.05-5.19,13.62-7.74s9.18-5.5,13.62-8.48c4-2.71,8.2-5.31,12.14-8.17-2.27,3.39-4.81,6.58-6.93,10.06-2.41,4-4.86,7.92-7.15,12-2.17,3.81-4.39,7.65-6.29,11.6a59.15,59.15,0,0,0-2.37,5.85,30.64,30.64,0,0,1-2,5.33,30.13,30.13,0,0,0-5.46-2.92c-2.44-1.12-4.86-2.3-7.29-3.45C24.54,39,21.93,37.79,19.38,36.52Zm1,2.65a29.79,29.79,0,0,0-4-2.07c-1.3-.6-2.53-1.31-3.84-1.89l-.07,0c-.07-.23-.15-.46-.22-.69a58.9,58.9,0,0,1,7.4,3.29l1.52.73Zm-.91.74c-2.22-.88-4.39-2.09-6.51-3.18l0,0c-.08-.28-.16-.55-.25-.82,1.29.6,2.53,1.28,3.84,1.82s2.48,1,3.67,1.62Zm-1,.77c-.9-.38-1.75-.87-2.67-1.22a12,12,0,0,0-2.41-.93c-.09-.36-.19-.73-.29-1.09,1,.47,2,.85,2.92,1.29A29.41,29.41,0,0,0,19.28,40Zm-1,.83a36.88,36.88,0,0,1-3.73-1.58l-.18-.78c.82.22,1.68.64,2.47.91s1.48.56,2.24.8c-.26.21-.52.41-.77.63ZM14.31,43.3a5,5,0,0,0,1,.41,5.7,5.7,0,0,1-.67.52C14.53,43.92,14.42,43.61,14.31,43.3Zm-.17-1.14c.3.12.61.2.91.31l1.09.39c-.16.18-.33.37-.51.54a13,13,0,0,1-1.43-.76ZM14,41.5c0-.29-.1-.59-.16-.88.53.21,1.08.39,1.61.6a10.88,10.88,0,0,0,1.66.58c-.25.24-.48.49-.71.74Z"/><path class="cls-2" d="M28.26,43c2,.71,4,1.28,6,2.12,2.2,1,4.31,2.22,6.45,3.31l.06,0a37.19,37.19,0,0,0,1.57-3.81c.67-1.55,1.46-3,2.18-4.57,1.48-3.16,2.68-6.45,4.31-9.53a.07.07,0,0,1,.13.05A95.63,95.63,0,0,1,45.13,40c-.7,1.54-1.44,3.07-2.15,4.62a41.55,41.55,0,0,1-1.83,4.29.27.27,0,0,1-.4.07.33.33,0,0,1-.4.08c-1.94-.89-3.76-2-5.65-3a63.31,63.31,0,0,0-6.47-2.87C28.15,43.09,28.18,43,28.26,43Z"/><path class="cls-2" d="M29.67,44.53c2.08.47,3.93,1.69,5.84,2.57s4.07,2,6,3.07a.18.18,0,0,1,.07,0,9.71,9.71,0,0,0,1-2.79A15.78,15.78,0,0,1,44,44.37a75.09,75.09,0,0,0,3.34-7.44.06.06,0,1,1,.11,0,24.43,24.43,0,0,1-2.75,7.34,19.92,19.92,0,0,0-1.57,3.61,8.28,8.28,0,0,1-1.21,2.83.23.23,0,0,1-.35,0,.31.31,0,0,1-.35,0c-1.83-1-3.72-2-5.62-2.92s-3.9-2.31-6-2.88A.23.23,0,0,1,29.67,44.53Z"/><path class="cls-2" d="M15.22,34.1a.3.3,0,0,1-.18-.17l-.16.07c-.33.13-.48-.4-.15-.52,2.93-1.14,5.11-3.62,7.9-5a.13.13,0,0,1,.13.22c-2.36,1.62-4.51,3.68-7.12,4.93,1.1.47,2.12,1.12,3.19,1.66,1.55.79,3.14,1.48,4.7,2.25.13.07,0,.29-.09.24-1.37-.54-2.73-1.09-4.06-1.69S16.66,34.63,15.22,34.1Z"/><path class="cls-2" d="M53.69,10c2.91-1.69,5.37-4.08,8.19-5.92.32-.21.63.3.31.5-2.83,1.83-5.36,4.09-8.35,5.67A.15.15,0,0,1,53.69,10Z"/><path class="cls-2" d="M64.27,4.3C65.1,2.89,66,1.51,66.73.05c0-.1.18,0,.16.06a18.28,18.28,0,0,1-2,4.06C64,5.67,63,7.05,62.25,8.6c-.14.28-.55,0-.42-.24A40.79,40.79,0,0,1,64.27,4.3Z"/><path class="cls-2" d="M64.69,5.08a14,14,0,0,0,2.12-3.34.11.11,0,0,1,.22.05,7.57,7.57,0,0,1-1.46,2.83C64.78,5.84,64,7,63.22,8.26c-.17.3-.64,0-.46-.26C63.38,7,64,6,64.69,5.08Z"/><path class="cls-2" d="M6.35,23.81a20.8,20.8,0,0,1,2.2,3,.19.19,0,0,1-.33.2,25.1,25.1,0,0,0-2.65-3.58,19.8,19.8,0,0,1-2.46-2.89.11.11,0,0,1,.18-.11A40.33,40.33,0,0,0,6.35,23.81Z"/><path class="cls-2" d="M9.33,26.43a.19.19,0,0,1-.32.2,41.24,41.24,0,0,0-4.62-5.51c-.09-.1.05-.25.14-.16A30,30,0,0,1,9.33,26.43Z"/><path class="cls-2" d="M10,26.24c.15.21-.2.42-.35.21a22.54,22.54,0,0,0-4-4.84s0-.1,0-.09c.75.19,1.49,1.24,2,1.8A32.22,32.22,0,0,1,10,26.24Z"/><path class="cls-2" d="M10.89,25.73c.1.21-.2.4-.31.19a11.68,11.68,0,0,0-1.44-1.78c-.61-.71-1.28-1.36-1.94-2-.12-.11,0-.28.17-.18.7.62,1.37,1.25,2,1.93A8.62,8.62,0,0,1,10.89,25.73Z"/><path class="cls-2" d="M11.14,25.78c-.59-1.19-1.77-2.07-2.31-3.3,0,0,0,0,0,0,.31.05.76.8.93,1a10.28,10.28,0,0,1,1.65,2.14C11.52,25.8,11.24,26,11.14,25.78Z"/><path class="cls-2" d="M11.88,25.43c-.27-.3-.45-.66-.69-1s-.61-.88-.94-1.31c-.08-.1.1-.25.19-.15.59.71,1.09,1.48,1.67,2.2C12.24,25.35,12,25.59,11.88,25.43Z"/><path class="cls-2" d="M3,23.7c.79.81,1.5,1.72,2.26,2.56a12.92,12.92,0,0,1,2,2.63.14.14,0,0,1,0,.12c.31,1,.6,2,.9,3a13.78,13.78,0,0,1,.63,2.43c0,.08-.12.1-.13,0A35.87,35.87,0,0,0,6.88,29.1a.17.17,0,0,1,0-.1c-1.06-1.92-2.85-3.36-4-5.22C2.82,23.72,2.91,23.65,3,23.7Z"/></g></g></svg>