<svg xmlns="http://www.w3.org/2000/svg" xmlns:xlink="http://www.w3.org/1999/xlink" viewBox="0 0 530.8 144.49"><defs><style>.cls-1{fill:#f9b233;}.cls-2{opacity:0.68;}.cls-3{clip-path:url(#clip-path);}.cls-4{fill:#f39200;}.cls-5{font-size:16.7px;fill:#1d1d1b;}.cls-14,.cls-15,.cls-5,.cls-9{font-family:Bella;}.cls-6{fill:url(#Degradado_sin_nombre_27);}.cls-7,.cls-8{fill:#063;}.cls-14,.cls-15,.cls-7,.cls-9{stroke:#fff;stroke-miterlimit:10;}.cls-7,.cls-9{stroke-width:0.25px;}.cls-9{font-size:17.63px;}.cls-14,.cls-15,.cls-9{fill:#ec671b;}.cls-10{letter-spacing:-0.01em;}.cls-11{letter-spacing:-0.03em;}.cls-12{letter-spacing:-0.06em;}.cls-13{letter-spacing:-0.08em;}.cls-14{font-size:52.04px;}.cls-14,.cls-15{stroke-width:0.75px;}.cls-15{font-size:32.27px;}</style><clipPath id="clip-path" transform="translate(0.96)"><path class="cls-1" d="M0,0H388.2a0,0,0,0,1,0,0V25.24A119.25,119.25,0,0,1,268.95,144.49H0a0,0,0,0,1,0,0V0A0,0,0,0,1,0,0Z"/></clipPath><linearGradient id="Degradado_sin_nombre_27" x1="59.01" y1="77.57" x2="331.61" y2="77.57" gradientUnits="userSpaceOnUse"><stop offset="0" stop-color="#68b545"/><stop offset="0.02" stop-color="#64b148"/><stop offset="0.13" stop-color="#539e56"/><stop offset="0.25" stop-color="#48935e"/><stop offset="0.37" stop-color="#458f61"/><stop offset="0.85" stop-color="#27508d"/><stop offset="0.89" stop-color="#253e92"/><stop offset="1" stop-color="#203c91"/></linearGradient></defs><title>bannerHome</title><g id="Capa_2" data-name="Capa 2"><g id="Capa_1-2" data-name="Capa 1"><g class="cls-2"><path class="cls-1" d="M1,0h388.2a0,0,0,0,1,0,0V25.24A119.25,119.25,0,0,1,269.91,144.49H1a0,0,0,0,1,0,0V0A0,0,0,0,1,1,0Z"/><g class="cls-3"><path class="cls-4" d="M276.65.82c-2,.83-4,1.69-6,2.49l-59.4,23.46c-.37.14-.73.31-1.23.52l79.11,78.15-.15.2-37.63-9,8-10.2c2.16,2.06,4.21,4,6.25,6a23.8,23.8,0,0,1,3,2.88c1.87,2.6,5.18,2.64,8.58,3.43L258.37,80.52l-14.7,17.81,56,13.06.23-.26L221,28.78,276.82,7.85c2.26,20,4.5,39.82,6.74,59.68L349.72,76c-.32-.45-.53-.76-.76-1.07q-28.17-36.49-56.33-73c-.27-.35-.47-.73-.7-1.09h-2.26c.73,7.14,1.47,14.28,2.18,21.42q1.63,16.17,3.23,32.36c.23,2.2.47,4.41.71,6.68l29,2.54c-7.68-11.58-15.21-23-22.74-34.32.19,3,.7,6,1,9a10.44,10.44,0,0,0,1.81,4.7C307.94,48.08,311,53,314,57.88c.22.34.39.69.68,1.21-4.64-.46-9-.87-13.32-1.35a1.19,1.19,0,0,1-.83-.81c-.63-4.8-1.18-9.6-1.77-14.4Q297.39,31.39,296,20.24q-.47-3.85-.91-7.7l.28-.09,43.8,58-9.39-1.06c-13.24-1.49-26.48-3-39.73-4.45-1.12-.12-1.38-.48-1.45-1.26q-1-11.79-2-23.58c-.62-7-1.26-14.07-1.87-21.1Q283.92,9.9,283.16.82Z" transform="translate(0.96)"/><path class="cls-4" d="M305.51,142.51,302.38,138a11,11,0,0,1-.91-1.27c-1.3-2.73-3.86-3.86-7.37-4.61-21.24-4.52-42.41-9.25-63.61-13.91l-1-.19-12.26,24.51h5.09q5.15-10,10.29-19.95c.41,0,.74.06,1,.13q29.42,6.59,58.81,13.2a2.23,2.23,0,0,1,1.09.43c1.56,2.05,3.06,4.12,4.58,6.19Z" transform="translate(0.96)"/><path class="cls-4" d="M313.14.82q11.73,16.23,23.45,32.48c5.14,7.1,10.27,14.21,15.45,21.4l.71-.47V44.5l-1.14,1.64L319.71,2.05l33,8.27v-5L347.53,4l-12-3.15Z" transform="translate(0.96)"/><path class="cls-4" d="M352.75,62.84,351.87,64,347,57.29,306.42,1.82c-.24-.32-.42-.67-.63-1h-7.36c3.44,4.54,6.86,9.09,10.32,13.62l43,56.19a12.24,12.24,0,0,0,1,1Z" transform="translate(0.96)"/><path class="cls-4" d="M267.32,142.51l12.59-4.79,2.87-1.09-45-10.22c-1.19,2-2.36,4-3.51,6q-2.86,5-5.71,10.06H245L257.29,138c-3.59-1.16-7-2-10.51-.27a11.38,11.38,0,0,1-1.71.54L235,141.36c0-.23,0-.35.08-.43,2.16-3.3,4.35-6.6,6.48-9.91.45-.71,1-.48,1.64-.33l20,4.54L271,137c-.76.31-1.2.51-1.65.68l-12.76,4.82Z" transform="translate(0.96)"/><path class="cls-4" d="M202.26.82h-1.13c-.49.39-.93.81-1.46,1.16l-19.2,12.74c-1.4.94-2.64,2.21-4.8,1.26v5l2.15.89,13.78-9a1.51,1.51,0,0,1-.18,1c-3.34,6.43-6.66,12.86-10,19.29-1.9,3.64-3.83,7.28-5.74,10.92v9.51a11.59,11.59,0,0,0,.63-1Q188.71,28,201.08,3.46C201.52,2.59,201.87,1.7,202.26.82Z" transform="translate(0.96)"/><path class="cls-4" d="M217.25.82,205.79,23.49a7.11,7.11,0,0,0,1-.23L266.07,1.19a4.92,4.92,0,0,0,.68-.37H256c-.34.17-.67.38-1,.52L215.67,16c-.35.13-.73.21-1.32.38l8-15.53Z" transform="translate(0.96)"/><path class="cls-4" d="M175.67,71.66c1.36-2.6,2.75-5.19,4.08-7.8q15.7-31,31.4-62c.17-.35.3-.71.44-1.06h-4.24a12.38,12.38,0,0,1-.5,1.27q-13,25.21-26,50.41c-1.71,3.31-3.47,6.59-5.2,9.88Z" transform="translate(0.96)"/><path class="cls-4" d="M211.88,142.51c.71-1.54,1.39-3.1,2.16-4.62q4.76-9.48,9.56-18.93c.1-.2.18-.4.38-.85l-15.71,10Q197.4,135,186.53,142a7,7,0,0,0-.68.54h7.92c.1-.08.18-.18.28-.25l19.15-12.09a8.84,8.84,0,0,1,.86-.4l-.68,1.36-5.75,11.38Z" transform="translate(0.96)"/><path class="cls-4" d="M352.75,15.76l-13.2-3.59-7.4-2,19.06,24.63,1.54-2.49V28.2a6.61,6.61,0,0,1-.74-.63L344,18c-.3-.36-.58-.73-.87-1.09l.18-.16L352.75,21Z" transform="translate(0.96)"/><path class="cls-4" d="M334.64,142.51a1.06,1.06,0,0,0-.31-.21l-26.06-6.63c1.71,2.39,3.29,4.62,4.87,6.84Z" transform="translate(0.96)"/><path class="cls-4" d="M175.67,10.32c1.55.67,2.7.23,4-.62,4.21-2.77,8.54-5.42,12.81-8.13.36-.23.68-.5,1-.75h-7.92c-1.94,1.25-3.94,2.45-5.79,3.79a3.89,3.89,0,0,1-4.11.73Z" transform="translate(0.96)"/><path class="cls-4" d="M228.28.82l-3,5.56-.83,1.49c.44-.09.65-.12.83-.18l18.59-6.56a3.81,3.81,0,0,0,.56-.31Z" transform="translate(0.96)"/><path class="cls-4" d="M283.16,142.51l-.31-2.34-5.63,2.34Z" transform="translate(0.96)"/><path class="cls-4" d="M291.65,142.51l-1.95-2.79-.28.05.25,2.74Z" transform="translate(0.96)"/><path class="cls-4" d="M175.67,31.6c1.28-1.7,1.28-1.87,0-2.94Z" transform="translate(0.96)"/><path class="cls-4" d="M203.9,39l46.54,38.05-26.68,25.46L326.4,126.28l-83.76-93.6,25.69-8.26c1.15,7.45,2.28,14.76,3.42,22.08l-.27.08L261.37,33l-6.47,2.08,22.88,26.8.21-.06c-2-15.49-4-31-6-46.66L231.36,30.8,313.26,119l-.15.21L234,100.66l21.6-23-53-48-24,46.64,9.76,1.28L233,83.35c1.48.19,3.17.76,4.4.39s1.87-1.7,2.75-2.62c1.22-1.29,2.41-2.59,3.67-3.94L206.15,48.92,195.08,68.67c1.11.25,2.12.49,3.14.69,8.26,1.67,16.53,3.3,24.78,5,1.57.34,1.77-.56,2.54-1.27l-22.11-7.46,5.15-9.48c9.79,7.1,19.45,14.12,29.2,21.21a27,27,0,0,1-2.11,2.4,2.2,2.2,0,0,1-1.46.22c-6.72-1-13.43-2-20.14-3l-25.26-3.81c-.46-.06-.91-.16-1.58-.28C192.78,61.65,198.29,50.42,203.9,39Z" transform="translate(0.96)"/><path class="cls-4" d="M347.78,140.24,297.69,77.15c2.5.26,4.71.48,6.92.72l38.77,4.23c.82.08,1.37.16,1.41,1q.94,20.13,2,40.25a2.31,2.31,0,0,1-.27,1.32l-28.88-38,8.05,1.07c2.27.31,4.54.66,6.82.92,1.1.12,1.46.51,1.53,1.37.29,3.46.65,6.92,1.06,10.37a4,4,0,0,0,.82,1.87,57.63,57.63,0,0,0,4.37,5.2c-.19-2.1-.38-4.2-.59-6.3-.44-4.59-.94-9.17-1.31-13.76-.09-1.16-.48-1.65-2.05-1.83-9-1-18-2.14-27-3.23-.59-.07-1.18-.11-2.13-.19l43.52,56.07.26,0q-.75-29.35-1.51-58.82L285,71.3c18.11,21,36,41.66,54.18,62.63l-15.27-3.54q-51.06-11.85-102.11-23.74a2.68,2.68,0,0,0-2.49.5q-18.37,13-36.8,26c-.3.21-.63.4-1,.6V84.3L224.3,91l-34.78,26.93-.31-.08,2.75-23,11.88,1.61c-.55.56-1,1-1.44,1.46a31.27,31.27,0,0,1-2.34,2.26,7,7,0,0,0-3,5.72l15.52-12.07-25.69-4.17-2,37.06,50.64-39.9L178,80.27l-.49,61,13.35-8.74q15.65-10.26,31.3-20.48a2.93,2.93,0,0,1,1.89-.21q22.14,5.06,44.25,10.16l78,18C346.75,140.07,347.16,140.13,347.78,140.24Z" transform="translate(0.96)"/><path class="cls-4" d="M100,1.18c-2,.83-4,1.69-6,2.49L34.65,27.12l-1.23.53,79.11,78.15-.15.2-37.63-9,8-10.2c2.16,2.06,4.21,4,6.25,6a23.8,23.8,0,0,1,3,2.88c1.87,2.6,5.18,2.64,8.58,3.43L81.74,80.87,67,98.69l56,13,.23-.25-79-82.35L100.19,8.21c2.26,20,4.5,39.82,6.74,59.68l66.16,8.46c-.32-.45-.53-.77-.76-1.07Q144.16,38.77,116,2.27c-.27-.35-.47-.73-.7-1.09H113c.73,7.14,1.47,14.27,2.18,21.42q1.64,16.17,3.23,32.35c.23,2.21.47,4.41.71,6.69l29.05,2.54c-7.68-11.58-15.21-23-22.74-34.32.19,3,.7,6,1,9a10.44,10.44,0,0,0,1.81,4.7c3.07,4.87,6.08,9.78,9.11,14.68.22.34.39.69.68,1.21-4.64-.46-9-.87-13.32-1.35a1.19,1.19,0,0,1-.83-.81c-.63-4.8-1.18-9.6-1.77-14.4q-1.35-11.14-2.72-22.29-.47-3.86-.91-7.71l.28-.08,43.8,58-9.39-1.06c-13.24-1.49-26.48-3-39.73-4.45-1.12-.12-1.38-.49-1.45-1.26q-1-11.79-2-23.58c-.62-7-1.26-14.07-1.87-21.1q-.8-9.09-1.55-18.17Z" transform="translate(0.96)"/><path class="cls-4" d="M128.88,142.87l-3.13-4.53a11.88,11.88,0,0,1-.91-1.27c-1.3-2.73-3.86-3.86-7.37-4.61-21.24-4.52-42.41-9.25-63.61-13.91l-1-.19L40.62,142.87h5.09l10.29-20c.41,0,.74.06,1,.13q29.42,6.58,58.81,13.2a2.05,2.05,0,0,1,1.09.43c1.56,2,3.06,4.12,4.58,6.19Z" transform="translate(0.96)"/><path class="cls-4" d="M136.51,1.18,160,33.65l15.45,21.4.71-.46V44.86L175,46.5,143.08,2.4l33,8.28v-5L170.9,4.33c-4-1.06-8-2.1-12-3.15Z" transform="translate(0.96)"/><path class="cls-4" d="M176.12,63.19l-.88,1.13-4.89-6.67L129.79,2.18c-.24-.32-.42-.67-.63-1H121.8c3.44,4.54,6.86,9.09,10.32,13.61l43,56.2a12.24,12.24,0,0,0,1,1Z" transform="translate(0.96)"/><path class="cls-4" d="M90.69,142.87l12.59-4.79,2.87-1.1-45-10.21c-1.19,2-2.36,4-3.51,6q-2.86,5-5.71,10.06h16.4l12.32-4.48c-3.59-1.15-7-2-10.51-.26a12.65,12.65,0,0,1-1.71.54l-10.08,3.05c0-.23,0-.35.08-.43,2.16-3.31,4.35-6.6,6.48-9.92.45-.7,1-.47,1.64-.33q10,2.29,20,4.55l7.83,1.78c-.76.31-1.2.51-1.65.68l-12.76,4.82Z" transform="translate(0.96)"/><path class="cls-4" d="M25.63,1.18H24.5C24,1.56,23.57,2,23,2.34L3.84,15.08C2.44,16,1.2,17.29-1,16.34v5l2.14.89,13.79-9a1.52,1.52,0,0,1-.18,1c-3.34,6.43-6.66,12.86-10,19.29C2.88,37.13,1,40.77-1,44.41v9.5a11.44,11.44,0,0,0,.63-1Q12.08,28.37,24.45,3.82C24.89,3,25.24,2.06,25.63,1.18Z" transform="translate(0.96)"/><path class="cls-4" d="M40.62,1.18,29.16,23.85a7.11,7.11,0,0,0,1-.23L89.44,1.55a4.92,4.92,0,0,0,.68-.37H79.37c-.34.17-.67.38-1,.52L39,16.32c-.35.13-.73.22-1.32.39l8-15.53Z" transform="translate(0.96)"/><path class="cls-4" d="M-1,72c1.36-2.6,2.75-5.19,4.07-7.8q15.72-31,31.41-62c.17-.35.3-.71.44-1.06H30.72a12.38,12.38,0,0,1-.5,1.27q-13,25.2-26,50.41C2.53,56.16.77,59.45-1,62.74Z" transform="translate(0.96)"/><path class="cls-4" d="M35.25,142.87c.71-1.54,1.39-3.1,2.16-4.62q4.76-9.48,9.56-18.93c.1-.2.18-.4.38-.86l-15.71,10L9.9,142.32a7.11,7.11,0,0,0-.68.55h7.92a3.15,3.15,0,0,1,.28-.25l19.15-12.09a8.84,8.84,0,0,1,.86-.4l-.68,1.36L31,142.87Z" transform="translate(0.96)"/><path class="cls-4" d="M176.12,16.11l-13.2-3.59c-2.34-.63-4.68-1.28-7.4-2l19.06,24.64,1.54-2.49V28.56a6.61,6.61,0,0,1-.74-.63l-8-9.57c-.3-.36-.58-.73-.87-1.09l.18-.16,9.42,4.21Z" transform="translate(0.96)"/><path class="cls-4" d="M158,142.87a.9.9,0,0,0-.31-.21L131.64,136c1.71,2.39,3.29,4.61,4.87,6.84Z" transform="translate(0.96)"/><path class="cls-4" d="M-1,10.68c1.55.67,2.7.23,4-.62,4.21-2.77,8.54-5.43,12.81-8.13.36-.23.68-.5,1-.75H8.94C7,2.43,5,3.63,3.15,5A3.89,3.89,0,0,1-1,5.7Z" transform="translate(0.96)"/><path class="cls-4" d="M51.65,1.18l-3,5.56L47.8,8.23A8,8,0,0,0,48.63,8L67.22,1.49a3.81,3.81,0,0,0,.56-.31Z" transform="translate(0.96)"/><path class="cls-4" d="M106.53,142.87l-.31-2.34-5.63,2.34Z" transform="translate(0.96)"/><path class="cls-4" d="M115,142.87l-2-2.79-.28,0,.25,2.74Z" transform="translate(0.96)"/><path class="cls-4" d="M-1,32C.32,30.26.32,30.09-1,29Z" transform="translate(0.96)"/><path class="cls-4" d="M27.27,39.36,73.81,77.41,47.13,102.87l102.64,23.77L66,33,91.7,24.78c1.15,7.44,2.28,14.76,3.42,22.08l-.27.08L84.74,33.4l-6.47,2.08,22.88,26.8.21-.06c-2-15.49-4-31-6-46.67L54.73,31.16l81.9,88.24-.15.2L57.41,101,79,78,26,30,2,76.65l9.76,1.28,44.63,5.78c1.48.19,3.17.76,4.4.39s1.87-1.7,2.75-2.62c1.22-1.29,2.41-2.59,3.67-3.94L29.52,49.28,18.45,69c1.11.25,2.12.49,3.14.69,8.26,1.67,16.53,3.3,24.78,5,1.57.33,1.77-.57,2.54-1.28L26.8,66,32,56.52l29.2,21.21A25.81,25.81,0,0,1,59,80.14a2.2,2.2,0,0,1-1.46.22c-6.72-1-13.43-2-20.14-3l-25.26-3.8c-.46-.07-.91-.16-1.58-.28C16.15,62,21.66,50.78,27.27,39.36Z" transform="translate(0.96)"/><path class="cls-4" d="M171.15,140.6,121.06,77.5c2.5.26,4.71.48,6.92.73l38.77,4.23c.82.08,1.37.16,1.41,1q.94,20.13,2,40.25a2.31,2.31,0,0,1-.27,1.32L141,87.07,149,88.14c2.27.31,4.54.66,6.82.92,1.1.12,1.46.51,1.53,1.37.29,3.46.65,6.92,1.06,10.37a4.06,4.06,0,0,0,.82,1.87,57.63,57.63,0,0,0,4.37,5.2c-.19-2.1-.38-4.2-.59-6.3-.44-4.59-.94-9.17-1.31-13.76-.09-1.16-.48-1.65-2-1.83-9-1-18-2.14-27-3.23-.59-.07-1.18-.11-2.13-.19l43.52,56.07.26,0q-.75-29.36-1.51-58.82L108.4,71.66c18.11,20.94,36,41.66,54.18,62.63l-15.27-3.54Q96.25,118.9,45.2,107a2.7,2.7,0,0,0-2.49.49q-18.37,13-36.8,26c-.3.21-.63.39-1,.6V84.66l42.73,6.66L12.89,118.25l-.31-.08,2.75-23,11.88,1.6c-.55.57-1,1-1.44,1.47a31.27,31.27,0,0,1-2.34,2.26,7,7,0,0,0-3,5.72L35.94,94.15,10.25,90,8.24,127l50.64-39.9L1.39,80.63l-.49,61,13.35-8.75q15.65-10.24,31.3-20.47a2.93,2.93,0,0,1,1.89-.21q22.14,5,44.25,10.16l78,18C170.12,140.43,170.53,140.49,171.15,140.6Z" transform="translate(0.96)"/><path class="cls-4" d="M453.75.55c-2,.83-4,1.7-6,2.49Q418.09,14.79,388.38,26.5l-1.23.52q39.62,39.15,79.11,78.15l-.15.2-37.63-9,8-10.2c2.16,2.07,4.21,4,6.26,6a23.77,23.77,0,0,1,2.95,2.89c1.87,2.59,5.19,2.63,8.59,3.42L435.46,80.25l-14.7,17.82,56,13.05.23-.25L398,28.52,453.92,7.58c2.25,20,4.49,39.83,6.73,59.68l66.17,8.46c-.32-.44-.53-.76-.77-1.06l-56.33-73c-.26-.34-.46-.72-.7-1.09h-2.26Q467.86,11.26,469,22q1.62,16.19,3.23,32.36c.22,2.21.46,4.41.71,6.69l29,2.53L479.19,29.24c.2,3,.7,6,1,9a10.46,10.46,0,0,0,1.8,4.69c3.08,4.88,6.09,9.79,9.12,14.68.21.34.39.7.67,1.22-4.63-.46-9-.87-13.31-1.35a1.24,1.24,0,0,1-.84-.81c-.62-4.8-1.18-9.61-1.76-14.41Q474.48,31.12,473.12,20c-.31-2.57-.61-5.14-.92-7.71l.28-.09,43.8,58-9.38-1.06c-13.24-1.49-26.49-3-39.74-4.45-1.11-.13-1.38-.49-1.44-1.26q-1-11.8-2.05-23.59-.93-10.55-1.87-21.1c-.53-6-1-12.11-1.55-18.17Z" transform="translate(0.96)"/><path class="cls-4" d="M482.6,142.24l-3.12-4.52a9.61,9.61,0,0,1-.91-1.27c-1.31-2.74-3.87-3.87-7.37-4.61-21.25-4.53-42.42-9.26-63.61-13.92l-1-.19q-6.14,12.27-12.26,24.51h5.1l10.28-19.94c.42,0,.74,0,1,.12l58.8,13.2a2.14,2.14,0,0,1,1.09.44c1.57,2,3.07,4.12,4.59,6.18Z" transform="translate(0.96)"/><path class="cls-4" d="M490.24.55,513.69,33l15.44,21.4.71-.46V44.24l-1.13,1.63C518.08,31.19,507.54,16.63,496.8,1.78l33,8.28v-5L524.62,3.7l-12-3.15Z" transform="translate(0.96)"/><path class="cls-4" d="M529.84,62.57,529,63.7,524.08,57Q503.79,29.3,483.51,1.55c-.23-.32-.42-.66-.63-1h-7.35c3.44,4.54,6.86,9.09,10.32,13.62q21.48,28.11,43,56.2a10.75,10.75,0,0,0,1,1Z" transform="translate(0.96)"/><path class="cls-4" d="M444.41,142.24,457,137.46l2.87-1.1-45-10.22c-1.18,2-2.36,4-3.51,6-1.91,3.34-3.81,6.7-5.71,10.05h16.41l12.32-4.47c-3.6-1.16-7-2-10.52-.27a11.25,11.25,0,0,1-1.7.54l-10.08,3.06a2,2,0,0,1,.07-.44c2.16-3.3,4.35-6.59,6.48-9.91.45-.7,1-.48,1.64-.33l20,4.55,7.82,1.78c-.75.31-1.19.5-1.65.67l-12.76,4.82Z" transform="translate(0.96)"/><path class="cls-4" d="M379.35.55h-1.13c-.48.39-.93.81-1.45,1.16q-9.6,6.39-19.2,12.75c-1.41.93-2.64,2.21-4.81,1.26v5l2.15.88,13.79-9a1.5,1.5,0,0,1-.19,1q-5,9.65-10,19.29c-1.9,3.65-3.83,7.28-5.75,10.92v9.51c.22-.33.46-.64.64-1L378.18,3.19C378.61,2.33,379,1.43,379.35.55Z" transform="translate(0.96)"/><path class="cls-4" d="M394.34.55c-3.78,7.5-7.57,15-11.45,22.68a9.24,9.24,0,0,0,1-.23Q413.56,12,443.17.92a5,5,0,0,0,.68-.37H433.1a10.16,10.16,0,0,1-1,.53Q412.43,8.4,392.76,15.7c-.35.13-.73.22-1.31.39l8-15.54Z" transform="translate(0.96)"/><path class="cls-4" d="M352.76,71.4c1.36-2.6,2.76-5.19,4.08-7.8q15.72-31,31.4-62c.18-.34.3-.7.45-1.06h-4.25A11.48,11.48,0,0,1,384,1.82Q371,27,358,52.24c-1.7,3.3-3.46,6.58-5.2,9.88Z" transform="translate(0.96)"/><path class="cls-4" d="M389,142.24c.72-1.54,1.4-3.09,2.16-4.62,3.17-6.31,6.38-12.62,9.56-18.93.1-.19.18-.4.39-.85l-15.72,10L363.62,141.7a7.18,7.18,0,0,0-.67.54h7.92a1.61,1.61,0,0,1,.28-.24l19.14-12.09a7.72,7.72,0,0,1,.86-.4l-.68,1.36-5.74,11.37Z" transform="translate(0.96)"/><path class="cls-4" d="M529.84,15.49l-13.2-3.59-7.4-2,19.07,24.64,1.53-2.5V27.94a5.67,5.67,0,0,1-.73-.64c-2.68-3.18-5.34-6.38-8-9.57l-.86-1.08.18-.16,9.41,4.21Z" transform="translate(0.96)"/><path class="cls-4" d="M511.74,142.24c-.11-.07-.19-.18-.31-.21l-26.07-6.63,4.88,6.84Z" transform="translate(0.96)"/><path class="cls-4" d="M352.76,10.06a3.85,3.85,0,0,0,4-.62C361,6.66,365.29,4,369.57,1.31c.36-.23.68-.51,1-.76h-7.92c-1.93,1.26-3.94,2.46-5.79,3.79a3.89,3.89,0,0,1-4.11.74Z" transform="translate(0.96)"/><path class="cls-4" d="M405.38.55l-3,5.56c-.24.44-.48.88-.83,1.5.44-.1.65-.12.84-.19L421,.87a3,3,0,0,0,.55-.32Z" transform="translate(0.96)"/><path class="cls-4" d="M460.25,142.24l-.31-2.34-5.63,2.34Z" transform="translate(0.96)"/><path class="cls-4" d="M468.74,142.24l-1.95-2.78-.28,0,.25,2.74Z" transform="translate(0.96)"/><path class="cls-4" d="M352.76,31.33c1.28-1.69,1.28-1.87,0-2.94Z" transform="translate(0.96)"/><path class="cls-4" d="M381,38.74l46.54,38-26.69,25.47L503.5,126,419.73,32.41l25.69-8.25c1.16,7.44,2.29,14.76,3.42,22.07l-.27.08c-3.34-4.47-6.68-9-10.11-13.53L432,34.85l22.88,26.81.2-.07c-2-15.49-4-31-6-46.66l-40.6,15.6,81.9,88.24-.14.21-79.07-18.59,21.6-23-53-48L355.68,76l9.75,1.28,44.63,5.78c1.48.19,3.17.76,4.41.39s1.86-1.7,2.74-2.63c1.22-1.28,2.42-2.59,3.67-3.94L383.24,48.66,372.18,68.41c1.1.24,2.11.48,3.13.69,8.27,1.67,16.54,3.29,24.78,5,1.58.33,1.78-.57,2.54-1.28l-22.11-7.46,5.16-9.48,29.2,21.21a27.21,27.21,0,0,1-2.11,2.4,2.24,2.24,0,0,1-1.47.23q-10.07-1.47-20.13-3L365.9,73c-.46-.07-.91-.16-1.57-.28C369.87,61.38,375.39,50.16,381,38.74Z" transform="translate(0.96)"/><path class="cls-4" d="M524.88,140l-50.1-63.1c2.51.26,4.72.48,6.92.72q19.4,2.12,38.78,4.23c.81.09,1.37.16,1.41,1q.95,20.11,2,40.25a2.41,2.41,0,0,1-.26,1.32l-28.89-38,8.05,1.08c2.28.3,4.55.66,6.83.91,1.09.12,1.45.51,1.52,1.38q.45,5.19,1.06,10.37a4.11,4.11,0,0,0,.82,1.87,57.67,57.67,0,0,0,4.38,5.19c-.2-2.1-.39-4.2-.59-6.3-.45-4.58-.94-9.17-1.31-13.76-.1-1.15-.49-1.65-2.05-1.82-9-1-18-2.15-27-3.23-.59-.08-1.18-.11-2.13-.2,14.63,18.85,29.08,37.46,43.52,56.08l.27,0c-.51-19.57-1-39.14-1.52-58.82L462.12,71l54.18,62.63L501,130.13Q450,118.27,398.92,106.39a2.71,2.71,0,0,0-2.49.49q-18.37,13-36.79,26c-.3.21-.64.4-1,.61V84l42.72,6.66-34.78,26.92-.31-.08,2.76-23,11.88,1.6c-.55.56-1,1-1.44,1.46a31.42,31.42,0,0,1-2.35,2.26,7,7,0,0,0-3,5.73l15.51-12.08L364,89.36l-2,37.05,50.65-39.9L355.11,80l-.48,61L368,132.27Q383.61,122,399.28,111.8a2.9,2.9,0,0,1,1.88-.21q22.14,5,44.25,10.16l78,18C523.84,139.8,524.25,139.86,524.88,140Z" transform="translate(0.96)"/></g></g><text class="cls-5" transform="translate(57.38 23.32)">Conoce nuestra Finca Modelo</text><path class="cls-6" d="M331.61,120.81l-27.42-.31a10.09,10.09,0,0,1-2.45,2.3,11.62,11.62,0,0,1-12.22.2,10.27,10.27,0,0,1-2.76-2.58l-105.38,0q.08-5.59.16-11.21a11.71,11.71,0,0,1-7.64.77,12.11,12.11,0,0,1-6.6-4.61,16.3,16.3,0,0,1-3-7.19,28.86,28.86,0,0,1,2.13-16.71c.27-.44,6.51-10.84,2.07-17.41a9.12,9.12,0,0,0-2.82-2.66c-4.06-2.39-10.09-1.17-15.39,2.77a21.49,21.49,0,0,0-9.07-7.57c-5.85-2.5-11.82-2.63-16.48-.66a36.13,36.13,0,0,1-9.23,2.53C98.26,60.75,84.6,49.57,80.91,46.35L59,30.5h272.6Z" transform="translate(0.96)"/><path class="cls-7" d="M23,70.75c.42-1.32.8-2.65,1.25-4a73.14,73.14,0,0,1,5.5-12.25A57.49,57.49,0,0,1,42.07,39a38.13,38.13,0,0,1,9.31-5.9c7.12-3.21,14.26-3.11,21.46-.33A66.12,66.12,0,0,1,85.93,40c4.66,3.15,9.26,6.38,14,9.42a37.73,37.73,0,0,0,14.15,5.78,60.16,60.16,0,0,0,6.86.44c.42,0,.85,0,1.28,0A21.7,21.7,0,0,1,117,57a31.61,31.61,0,0,1-15.1-2,77,77,0,0,1-12-5.94c-4.75-2.76-9.46-5.58-14.27-8.23a31.23,31.23,0,0,0-10.16-3.56,23.15,23.15,0,0,0-12.55,1.6A40.84,40.84,0,0,0,39.38,48.2a87.83,87.83,0,0,0-12.8,16.73c-1.11,1.83-2.14,3.71-3.22,5.57a3.21,3.21,0,0,1-.21.3Z" transform="translate(0.96)"/><path class="cls-8" d="M152.51,118c3.45-3.46,4.11-7.52,2.84-12a9.56,9.56,0,0,0-1.76-3.76,7.74,7.74,0,0,0-5.18-2.59c-2.72-.33-5.46-.55-8.19-.77a35.31,35.31,0,0,1-10.34-1.9c-7-2.78-10.62-9.16-9.19-16.6a37.93,37.93,0,0,1,1.44-4.58,5.05,5.05,0,0,1,.41-.8c0,2-.07,4,0,5.89a13,13,0,0,0,1.78,6.06,11.34,11.34,0,0,0,6.07,4.84,39.73,39.73,0,0,0,9.23,2,43.57,43.57,0,0,1,9.41,1.72,18.61,18.61,0,0,1,4.08,2,9.94,9.94,0,0,1,4.19,6.89,14.9,14.9,0,0,1-.8,9.2,1,1,0,0,0,.22.77,7.1,7.1,0,0,0,3.93,2.19c1.44.32,2.92.44,4.38.64.21,0,.41,0,.68,0A15.77,15.77,0,0,1,152.51,118Z" transform="translate(0.96)"/><path class="cls-8" d="M167.26,99.55c.63-.21,1.17-.42,1.73-.57a3.31,3.31,0,0,1,4.11,1.66c.58,1,1,2.1,1.56,3.1A12.17,12.17,0,0,0,176.3,106a4.64,4.64,0,0,0,4.17,1.61,10,10,0,0,1-4.4,1.21c-3.17.15-5.45-1.36-7.18-3.87a6.7,6.7,0,0,1-.64-1.05c-1.49-3.27-3.13-6.5-3.16-10.23a18.22,18.22,0,0,1,1.08-6.12c1.16-3.39,2.43-6.74,3.6-10.12a26.17,26.17,0,0,0,1.55-7.21,10.43,10.43,0,0,0-4.69-9.78,9.94,9.94,0,0,0-6.48-1.45A23.09,23.09,0,0,0,151,61.8l-.87.47L147,58.38c.38-.22.82-.52,1.3-.74a27.05,27.05,0,0,1,11.83-3A13.26,13.26,0,0,1,168,57,13.57,13.57,0,0,1,174,67.77a21.14,21.14,0,0,1-1.64,8.85c-1.3,3.27-2.75,6.48-4.11,9.72-1.16,2.74-2.18,5.51-2,8.57A12.4,12.4,0,0,0,167.26,99.55Z" transform="translate(0.96)"/><path class="cls-8" d="M119.65,58.48a31.56,31.56,0,0,1,9.61-2.54,24.07,24.07,0,0,1,9.14.61c6.28,1.78,10.18,6,12.07,12.12,1,3.19,1.61,6.49,2.49,9.71a39.21,39.21,0,0,0,1.83,5.21,11.16,11.16,0,0,0,6.28,6,.87.87,0,0,1,.64.77q1.83,12.15,3.7,24.3a.23.23,0,0,1-.07.2c-.46-1.62-.91-3.25-1.36-4.87l-3.33-12.1c-.46-1.67-.9-3.35-1.39-5a1.11,1.11,0,0,0-.59-.63,13.49,13.49,0,0,1-7.42-6.53c-1.76-3.2-2.5-6.73-3.32-10.24-.53-2.3-1-4.62-1.74-6.85-1.64-5-5.18-8.07-10.14-9.61a32.9,32.9,0,0,0-12.76-.94C122.07,58.16,120.87,58.33,119.65,58.48Z" transform="translate(0.96)"/><path class="cls-8" d="M66.47,59.82c.93-.42,1.83-.9,2.79-1.23,3.42-1.16,6.81-1.2,10,.73a13.16,13.16,0,0,1,4.87,5.37,34.32,34.32,0,0,1,2.72,8.62c1,4.44,1.85,8.9,2.87,13.33a31,31,0,0,0,2.65,7.57A6.27,6.27,0,0,0,93,95.37a6.74,6.74,0,0,1,1.39,3.52c1,5.92,2,11.84,2.9,17.78-.06-.19-.13-.38-.18-.57Q94.79,107.54,92.4,99a4.94,4.94,0,0,0-.85-1.68,25.61,25.61,0,0,1-4.26-8.67c-2-6.53-3.8-13.09-5.67-19.64a16.33,16.33,0,0,0-2.56-5.51A9.65,9.65,0,0,0,73,59.92a17.41,17.41,0,0,0-6.15,0l-.3,0Z" transform="translate(0.96)"/><path class="cls-8" d="M42.71,57c-.37,2.16-.88,4.4-1.12,6.67a15.9,15.9,0,0,0,1.74,9.91,13.68,13.68,0,0,0,5.16,5.19c2.41,1.35,4.9,2.56,7.41,3.71,3.7,1.7,7.54,3.09,11,5.3a23.21,23.21,0,0,1,6.49,5.88,3.18,3.18,0,0,1,.5,1,2.12,2.12,0,0,1-.36-.21,34.65,34.65,0,0,0-11.24-5.84c-3.37-1.15-6.76-2.24-10.08-3.5a23.36,23.36,0,0,1-8.61-5.27,15.72,15.72,0,0,1-4.36-14.42,20.87,20.87,0,0,1,3.31-8.24Z" transform="translate(0.96)"/><path class="cls-8" d="M97.39,119.17a16.51,16.51,0,0,1-11.83,1c.37-.45.77-.87,1.1-1.33a7.27,7.27,0,0,0,.91-6.41,19.93,19.93,0,0,0-5-8.8,8.65,8.65,0,0,0-1.17-1,18.1,18.1,0,0,1-6.16-8.69,26.23,26.23,0,0,0-1.91-4.49C71.68,86.44,69,84.56,66,83l-.29-.14s0,0,0-.05a11.42,11.42,0,0,1,3.94.77,13.63,13.63,0,0,1,8,8.16A17.91,17.91,0,0,0,83,99.49a17.9,17.9,0,0,1,5.6,8.25,12.76,12.76,0,0,1,.74,7.57,1.61,1.61,0,0,0,.86,2,11.45,11.45,0,0,0,4.66,1.56C95.69,119,96.48,119.08,97.39,119.17Z" transform="translate(0.96)"/><path class="cls-8" d="M22.91,79.73c-3.35-1.33-6.65-.94-9.91-.17-2.39.57-4.73,1.36-7.13,2,.22-.38.45-.84.73-1.27a16.27,16.27,0,0,1,5.59-5.13,26.4,26.4,0,0,1,8.55-3.07,1.56,1.56,0,0,1,1,.16c2.4,1.28,3,3.59,1.79,6.34C23.33,79,23.11,79.35,22.91,79.73Z" transform="translate(0.96)"/><path class="cls-8" d="M91.6,87.23a43.35,43.35,0,0,0,3.78,2.4,17.23,17.23,0,0,0,10.54,1.42,33.23,33.23,0,0,1,10.76-.32,22.7,22.7,0,0,1,3.54,1.12,6.65,6.65,0,0,1,1.15.75c-1.16-.19-2.11-.4-3.08-.49a24.3,24.3,0,0,0-8.39,1c-2.28.6-4.54,1.29-6.85,1.75a16.8,16.8,0,0,1-7.78-.34,2.82,2.82,0,0,1-1.61-1.1A13.47,13.47,0,0,1,91.6,87.23Z" transform="translate(0.96)"/><path class="cls-8" d="M48.88,86.22a10.27,10.27,0,0,1-4.55,8.23,12.54,12.54,0,0,1-5.85,2c-.42,0-.49-.2-.6-.49a30.58,30.58,0,0,0-5.49-9.24,29,29,0,0,0-7.83-6.41l-.27-.15.05-.18a21.49,21.49,0,0,1,2.39.62,21.66,21.66,0,0,1,6.84,4.25c2.31,2,4.45,4.28,6.68,6.41a1.89,1.89,0,0,0,1.06.46,5.14,5.14,0,0,0,4-1.49c1.14-1,2.13-2.28,3.17-3.44A5.75,5.75,0,0,0,48.88,86.22Z" transform="translate(0.96)"/><path class="cls-8" d="M127.2,109.14a19.67,19.67,0,0,1-10.87-.51c1.22-1.14,2.29-2.21,3.44-3.19a5,5,0,0,0,1.47-2.33c.79-2.31,1.73-4.56,2.62-6.84a3.93,3.93,0,0,1,.29-.55l4.59,2.53c-4,.67-6.06,3.46-7.29,7.09-.3.88-.14,1.27.69,1.84a15.66,15.66,0,0,0,4.52,1.8Z" transform="translate(0.96)"/><path class="cls-8" d="M83.75,107.65a16.47,16.47,0,0,1-8.84-1.16c1-.78,1.87-1.48,2.77-2.16a3.9,3.9,0,0,0,1.68-2.21c.45.31.75.63.34,1.18a1.3,1.3,0,0,0-.14.29c-.67,1.37-.56,1.84.81,2.57.92.5,1.91.87,2.87,1.29Z" transform="translate(0.96)"/><text class="cls-9" transform="translate(101.28 47.26)"><tspan class="cls-10">G</tspan><tspan x="14.01" y="0">ANADERIA R</tspan><tspan class="cls-11" x="118.49" y="0">E</tspan><tspan x="126.6" y="0">GENER</tspan><tspan class="cls-12" x="181.08" y="0">A</tspan><tspan x="192.93" y="0">TI</tspan><tspan class="cls-13" x="204.88" y="0">V</tspan><tspan x="214.83" y="0">A</tspan></text><text class="cls-14" transform="translate(179.62 91.19)">Santo</text><text class="cls-15" transform="translate(182.22 119.28)">Domingo</text></g></g></svg>