<svg xmlns="http://www.w3.org/2000/svg" viewBox="0 0 238.13 57"><defs><style>.cls-1{fill:#063;}.cls-2{fill:#f39200;}</style></defs><title>arrowServices</title><g id="Capa_2" data-name="Capa 2"><g id="Capa_1-2" data-name="Capa 1"><path class="cls-1" d="M238.13,39.06,106.27,37.73q-40.47,0-80.94,0a1,1,0,0,0-1.07.73c-2.66,6-5.35,11.9-8,17.86a1,1,0,0,1-1,.7C10.4,57,5.58,57,.75,57c-.22,0-.45,0-.74,0,.15-.36.26-.64.39-.92q5.91-13.4,11.85-26.79a1.64,1.64,0,0,0,0-1.51Q6.29,14.34.38.93C.26.66.15.38,0,0H.71c4.85,0,9.7,0,14.55,0a1,1,0,0,1,1,.71c2.63,5.89,5.3,11.76,7.92,17.65a1.29,1.29,0,0,0,1.37,1q40.18,0,80.38,0c.35,0,131.86,1.73,132.21,1.75Z"/><path class="cls-2" d="M233.68,25.69,101.4,24.34q-39.37,0-78.76,0a1.2,1.2,0,0,1-1.27-.87c-2.65-5.93-5.34-11.85-8-17.79a.92.92,0,0,0-1-.67c-1.66,0-3.32,0-5.09,0,.15.37.24.63.34.88q4.83,10.91,9.67,21.82a1.62,1.62,0,0,1,0,1.5Q12.5,40.14,7.68,51.07c-.11.25-.21.51-.36.89a33.18,33.18,0,0,1,4,0c1.37.17,2-.44,2.57-1.76,2.47-5.69,5.07-11.3,7.58-17a.94.94,0,0,1,1.05-.62h78.83l132.33,1Z"/></g></g></svg>