<svg xmlns="http://www.w3.org/2000/svg" viewBox="0 0 149.12 104.32"><defs><style>.cls-1,.cls-3{fill:#063;}.cls-2,.cls-4{fill:#fff;}.cls-3{fill-rule:evenodd;}.cls-4{font-size:18.45px;font-family:Bella;}</style></defs><title>bullServices</title><g id="Capa_2" data-name="Capa 2"><g id="Capa_1-2" data-name="Capa 1"><path class="cls-1" d="M138.18,70.33V64.41H10.94v5.92A14.47,14.47,0,0,0,0,84.37H0a14.47,14.47,0,0,0,10.94,14v5.92H138.18V98.4a14.48,14.48,0,0,0,10.94-14h0A14.48,14.48,0,0,0,138.18,70.33Z"/><circle class="cls-2" cx="7.17" cy="83.77" r="3.33"/><circle class="cls-2" cx="142.54" cy="83.77" r="3.33"/><path class="cls-3" d="M18,17.64c0,.85-3.05,6.85-3.33,9.77,0,0,0-.05,0,0l.4-.68A91.53,91.53,0,0,1,21.59,16c.32-.45.66-.81,1-1.24A75,75,0,0,1,28,8.92,19.32,19.32,0,0,1,30.6,7C39.16,1.7,45.24,5.65,52.6,11a12.79,12.79,0,0,1,2.54,2c.5,0,3.71,2.36,4.38,2.78A23.88,23.88,0,0,0,70,19.66c1.54.11,4.79-.09,5.76-.94-.55-.1-1.29-.1-1.87-.16a22,22,0,0,1-5.09-1c-3.32-1.2-5.13-2.69-7.8-4.69-.53-.41-6.72-5.13-6.82-5.72a7.78,7.78,0,0,1-1.59-1C48.63,3,46.06,1.2,41,.12a15.27,15.27,0,0,0-8.34,1.23c-2.78,1.22-3.72,2.21-6,4.07l-1.9,1.89L21.94,11c-.69,1-1.36,2.11-2,3.24-.34.57-.63,1.09-.93,1.7-.14.28-.29.58-.43.9s-.17.24-.56.76"/><path class="cls-3" d="M75.66,32.91a34.79,34.79,0,0,1-.81,3.77,12.57,12.57,0,0,0,.22,4.3c.05.34.05.72.1,1.06s.22.39.4.72c.27.51.49,1,.76,1.5,1.72,2.88,5,4.43,8.15,4.92,1.68.26,6.26.54,7.47,1,2.76.56,3.86,2.28,4.36,5.36.22,1.31.38,3.42-.15,4.53-.07.16-.14.24-.21.4a5.31,5.31,0,0,1-.55,1.3,6.69,6.69,0,0,0-1,1.47c1.7.9,2.34.71,4.32.72,1.58,0,.35.38,2.07-.27.5-.19,1.46-.41,1.64-.88a4.82,4.82,0,0,1-2.27-.47c-.22-.08-.63,0-.79-.17-.82.05-1.68-.86-2.1-1.27s-.44-.36-.29-1.22c.09-.5.22-.94.35-1.42a11.61,11.61,0,0,0-.27-6.17c-3.19-9.76-17.62-2.61-20.53-13-.68-2.44-.34-4.06-.44-6.57-.21.15-.23.27-.46.4"/><path class="cls-3" d="M106.57,56.56c1.31.48,1,.72,2.73.63.6,0,2.15-.31,2.37-.79-3-.27-3.4-2.77-4.38-4.82a8.41,8.41,0,0,0-.68-1.17c-.45-.61-2.35,0-3,0-.46-1-.49-4.18-.33-5.41a18.33,18.33,0,0,1,1.29-4.57c.53-1.37,1.24-2.71,1.73-4.06,1.82-5,2.91-9.53-.18-14.08-1.6-2.35-4.08-3.56-7.77-3.54-2.74.6-5,.74-6.91,2.4a3.34,3.34,0,0,0,.45.68A17.21,17.21,0,0,1,93.27,24l2.28-1.08c4.46-1.82,9.86-1.25,10.63,5,.51,4.11-1.27,8.51-2.54,12.17-1.7,4.95-1.81,7,0,12.23a8,8,0,0,0,2.91,4.3"/><path class="cls-3" d="M101.47,58.46a1.92,1.92,0,0,1,.4.89c.17.63.11.8.31,1.06a52,52,0,0,0-.57-6.33c-.08-.68-1.17-10-1.42-10.43a4,4,0,0,0-.91-.71,7.37,7.37,0,0,1-3-3.57c-2.49-5.09-1.85-13.66-6.18-17.21a7.82,7.82,0,0,1-1.74-1.63,23.12,23.12,0,0,1-3.19-1.13A13.47,13.47,0,0,0,81.26,19c-1.76,0-5.56.66-6.68,1.66a35.31,35.31,0,0,0,3.55-.18c3.15-.19,6.82.44,9.28,2.48,3.22,2.66,3.7,6.33,4.74,11.81.6,3.18,1.48,6.68,3.67,8.72,2.73,2.54,2.43-.08,3.48,4.69.25,1.15.52,2.27.77,3.4.31,1.34,1.59,5.71,1.4,6.87"/><path class="cls-3" d="M50.47,26.22a40.68,40.68,0,0,1,1.18,4.4c.36,1.49.72,3,1.08,4.51.77,3.18,1.79,8.12,3.17,10.78l1,1.75a18.06,18.06,0,0,1,.64,2.18c.19.71.37,1.47.55,2.2.26,1.07,2.08,8.6,2.05,9,.2-1.3-.92-7.42-1.15-9.13a41.12,41.12,0,0,0-.66-4.55,10.17,10.17,0,0,0-.79-1.74c-.27-.54-.5-1.19-.74-1.79-.58-1.42-3.57-15.94-3.35-17.19a2.64,2.64,0,0,1-.47-.9c-1-2.38-1.52-3.92-3.7-5.47s-6.62-1.07-7.67.38c2.62.13,3.57-.5,5.91,1a7.19,7.19,0,0,1,2.92,4.54"/><path class="cls-3" d="M27.67,35a11.15,11.15,0,0,1,2,1.51c1.49,1.15,5.49,2.82,7.25,3.59a14.34,14.34,0,0,1,1.8.9,3.13,3.13,0,0,0,.73.16c2.44.57,5.8,3.86,6.59,4.29L44.44,43a10.82,10.82,0,0,0-2-2.08,19.17,19.17,0,0,0-3.63-2.4,3.85,3.85,0,0,1-1.14-.81,14.52,14.52,0,0,1-2.51-1.15c-.81-.43-1.54-.87-2.32-1.31A23.83,23.83,0,0,1,29.58,33,1.85,1.85,0,0,1,28.82,32a4.78,4.78,0,0,1-1.06-1.13A7.06,7.06,0,0,1,27,29.51c-1.06-2.31-1-5.18-.63-7.71,0-.41.63-3.51.55-3.64l-.5.76a15.53,15.53,0,0,0-1.91,7.94,10.8,10.8,0,0,0,2,6.42l1.1,1.64s0,0,0,0"/><path class="cls-3" d="M49.33,50.06c.41.08.82.61,1.06.85s.68.59,1,.93a9,9,0,0,1,1.39,2.49c.16,0,0-.06.21.14l.41.73a9.66,9.66,0,0,1,.43,1.1,12.76,12.76,0,0,1,.53,2.56,6.48,6.48,0,0,1-.26,2.77c-.42,1.21-.83.68-1.15,1.92a13.45,13.45,0,0,0,4,.44,11.52,11.52,0,0,0,3.34-1c-1.5-.33-3.17-.4-4.24-1.32a6.14,6.14,0,0,1-.72-.73c-.14-.36.26-2.79.08-4.27a14.52,14.52,0,0,0-3.76-7.74c-2.38-2.19-2.79-4.63-4.15-7.37a9.59,9.59,0,0,0-1.07-1.84,8.32,8.32,0,0,0-1.48-1.33,6.85,6.85,0,0,0-4-1.57c.17.2,3.8,2.25,5,5.67.48,1.3.84,2.91,1.36,4.13.66,1.56,1.7,2.67,2,3.46"/><path class="cls-3" d="M75.16,44.71a2,2,0,0,0-.77-.66,2,2,0,0,1-.43-.28c-.22-.19-.18-.24-.52-.26-.92-.07-1.72-.23-2.61-.35-3.85-.55-6.23,1.13-10.34-.42A7.42,7.42,0,0,1,57.72,41a4,4,0,0,0-.87-.69,28.42,28.42,0,0,0,.48,3,5.3,5.3,0,0,0,1.39,2c1.39,1,3.8.86,5.5.58,3.07-.51,4.55-1.68,8-1.53.89,0,2.19.33,3,.3"/><path class="cls-3" d="M8.66,33.44a10.61,10.61,0,0,1,4.61-.12,6.47,6.47,0,0,1,1.34.49c.57-1.76,1.17-3.34-.24-4.84A2.19,2.19,0,0,0,13,28.36c-.8-.07-.42.09-1.48.44a10.79,10.79,0,0,0-3.95,1.78A10.82,10.82,0,0,0,5.4,32.32a9.73,9.73,0,0,0-1.49,2.49A9.66,9.66,0,0,0,6.14,34a12.65,12.65,0,0,1,2.52-.59"/><path class="cls-3" d="M25,45.74c.11-.1,1.74-.73,2.05-.87,2.05-1,3.39-3.57,3.46-6a6.34,6.34,0,0,0-1,1.35,9.75,9.75,0,0,1-1.13,1.26,5.05,5.05,0,0,1-1.39.94c-.5.21-1.41.34-1.77-.1a1.54,1.54,0,0,1-.58-.58c-.16-.23-.32-.41-.47-.65a17.25,17.25,0,0,0-1.57-1.78c-.53-.52-.8-1-1.62-1.78l-1.76-1.58c-.31-.31-.16-.34-.59-.51-1.12-.46-1.77-1.16-3.14-1.35.26.58,1.92,1.52,2.62,2.4a18.12,18.12,0,0,1,1.74,2c.08.13.16.3.23.42.24.39.06.11.41.25.14.24.27.52.42.76a16.7,16.7,0,0,1,1.35,2.43c.5,1.16.94,2.49,1.5,3.5Z"/><text class="cls-4" transform="translate(32.01 92.94)">Servicios</text></g></g></svg>